<?xml version="1.0" encoding="UTF-8"?>
<!DOCTYPE svg PUBLIC "-//W3C//DTD SVG 1.1//EN" "http://www.w3.org/Graphics/SVG/1.1/DTD/svg11.dtd">
<!-- Creator: CorelDRAW -->
<svg xmlns="http://www.w3.org/2000/svg" xml:space="preserve" width="3.70333in" height="2.08333in" version="1.1" style="shape-rendering:geometricPrecision; text-rendering:geometricPrecision; image-rendering:optimizeQuality; fill-rule:evenodd; clip-rule:evenodd"
viewBox="0 0 3703.33 2083.33"
 xmlns:xlink="http://www.w3.org/1999/xlink"
 xmlns:xodm="http://www.corel.com/coreldraw/odm/2003">
 <defs>
  <style type="text/css">
   <![CDATA[
    .fil3 {fill:#00005B}
    .fil5 {fill:#00005D}
    .fil4 {fill:#9898FD}
    .fil0 {fill:#E6E7E8}
    .fil2 {fill:#373435;fill-opacity:0.031373}
    .fil1 {fill:#373435;fill-opacity:0.101961}
   ]]>
  </style>
 </defs>
 <g id="Layer_x0020_1">
  <metadata id="CorelCorpID_0Corel-Layer"/>
  <polygon class="fil0" points="-0,0.07 3704.33,0.07 3704.33,2083.26 -0,2083.26 "/>
  <polygon class="fil1" points="1919.42,2083.26 -0,2083.26 -0,937.81 1149.64,263.98 1138,271.46 1126.76,279.47 1115.91,288 1105.5,297.03 1095.53,306.54 1086.02,316.52 1076.99,326.93 1068.46,337.77 1060.44,349.02 1052.96,360.65 1046.04,372.66 1039.69,385.02 1033.93,397.71 1028.78,410.72 1024.25,424.02 1020.37,437.6 1017.15,451.44 1014.62,465.53 1012.79,479.83 1011.68,494.34 1011.3,509.04 1011.3,1577.63 1011.68,1592.33 1012.79,1606.84 1014.62,1621.14 1017.15,1635.22 1020.37,1649.07 1024.25,1662.65 1028.78,1675.95 1033.93,1688.96 1039.69,1701.65 1046.04,1714.01 1052.96,1726.02 1060.44,1737.65 1068.46,1748.9 1076.99,1759.74 1086.02,1770.15 1095.53,1780.13 1105.5,1789.64 1115.91,1798.67 1126.76,1807.2 1138,1815.21 1149.64,1822.69 1161.65,1829.61 1174,1835.96 1186.7,1841.73 1199.7,1846.88 1213,1851.41 1226.59,1855.28 1240.43,1858.5 1254.51,1861.03 1268.81,1862.86 1283.33,1863.98 1298.02,1864.35 2401.96,1864.35 2416.66,1863.98 2431.17,1862.86 2445.48,1861.03 2459.56,1858.5 2473.4,1855.28 2486.98,1851.41 2500.29,1846.88 2513.29,1841.73 "/>
  <path class="fil2" d="M218.02 1825.24c7,11 12,21 16,32 3,7 5,19 21,19 5,0 11,-2 17,-5 7,-3 11,-9 14,-17l6 -21 15 -8 1 1c-2,8 -3,15 -3,21 0,18 15,24 27,24 7,0 13,-3 13,-10 0,-8 -4,-23 -8,-35 7,-7 14,-14 22,-20l1 1c3,15 5,30 5,40 0,10 -4,20 -8,27 -7,14 -20,25 -36,25 -12,0 -25,-6 -34,-17l-1 0c-9,11 -22,20 -43,20l-7 0c-1,14 -4,24 -9,33 -13,25 -50,42 -85.01,42 -49,0 -73.01,-28 -73.01,-66 0,-23 8,-45 19,-60l10 4c-7,14 -12,27 -12,40 0,35 29,52 61,52 31,0 68.01,-20 75.01,-42 -3,-25 -12,-36 -26,-59 5,-8 10,-15 17,-23l1 0 0 0 0 0 0 0 0 0 4.02 1.99zm563.05 -132.01c10,6 20,14 30,23 -6,8 -12,15 -21,21 -10,-8 -20,-15 -30,-22 7,-8 14,-15 21,-22l0 0 0 0 0 -0zm5 96.01c-17,0 -30,11 -30,19 0,17 33,23 73.01,23 -5,-20 -22,-42 -43,-42l0 0 0 0zm-37 93.01c22,0 41,-1 55,-4 16,-4 30,-12 30,-18 0,-2 0,-3 -1,-5 -9,1 -19,1 -29,1 -29,0 -52,-7 -60,-23 -2,-5 -4,-10 -4,-15 0,-16 7,-31 19,-42 10,-9 21,-14 33,-14 20,0 37,17 48,42 6,14 11,30 11,51 0,14 -4,25 -12,34 -16,15 -45,21 -90.01,21l-21 0 0 0 -5 0c-11,0 -19,-2 -25,-7l-1 0c0,3 1,5 1,8 0,10 -3,23 -10,33 -20,30 -42,43 -60,43 -19,0 -42,-7 -63,-17l4 -7c7,3 16,5 29,5 34,0 78.01,-33 84.01,-64 -1,-3 -3,-6 -7,-10 -10,-12 -16,-22 -22,-32 5,-10 10,-18 14,-25l2 0c14,29 28,46 57,46l4 0 0 0 21 0 0 0 0 0 0 0 0 0 -2 -1zm-146.01 31c2,-14 3,-29 3,-43l0 -21c0,-39 -5,-96.01 -9,-133.01 7,-8 17,-17 25,-23l2 1c5,47 7,101.01 7,151.01 0,13 -1,26 -2,35 -1,12 -8,21 -22,35l-3 -1 0 0 0 0 0 0 -1 -1zm-151.02 -62.01c1,18 10,33 41,33 20,0 36,-5 55,-14 3,-2 5,-3 5,-5 0,-12 -9,-27 -24,-41 -14,-13 -34,-25 -51,-32 -6,-3 -8,-5 -8,-8 0,-5 7,-17 13,-24l2 0c20,11 43,27 60,44 15,16 25,33 25,51 0,13 -4,26 -11,38 -23,11 -46,20 -70.01,20 -29,0 -48,-13 -48,-45 0,-3 0,-9 1,-16l10 0 0 0 0 0 0 0 0 0 0 -1zm-52 -52l18 29c7,11 13,22 13,41l0 24c0,19 -12,39 -32,60 -15,14 -29,20 -41,20 -19,0 -40,-6 -65,-17l3 -7c8,2 17,4 28,4 36,0 72.01,-26 88.01,-58 2,-4 3,-7 3,-9 0,-4 -2,-8 -4,-11 -9,-17 -19,-33 -30,-47 6,-9 12,-18 18,-27l2 0 0 0 0 0 0 0 0 0 -1 -2z"/>
  <rect class="fil3" x="1011.3" y="222.32" width="1677.38" height="1642.03" rx="237.64" ry="286.72"/>
  <g id="_2347912168480">
   <path class="fil4" d="M1518 1047.13l0 -235.87c17.98,-1.49 64.49,-1.41 84.32,-1.37 72.31,0.14 141.87,31.63 140.24,119.25 -0.49,26.18 -6.55,49.82 -19.28,66.43 -4.11,5.36 -5.59,6.33 -10.23,11.4 -8.17,8.91 -26.98,20.44 -39.55,25.41 -46.5,18.41 -102.56,17.47 -155.49,14.74zm-153.02 -362.53l0 718.39c0,8.24 2.1,11.12 10.44,11.12l131.49 0c8.27,0 10.39,-3.93 10.39,-11.92l0 -223.16c22.46,0 44.41,1.8 67.39,1.4 93.16,-1.61 172.51,-13.79 240.06,-76.17 48.12,-44.44 69.72,-107.42 70.77,-175.88 0.95,-61.74 -15.59,-114.32 -50.9,-159.74 -11.22,-14.43 -21.35,-23.59 -35.49,-35.07 -57.65,-46.83 -135.26,-62.59 -226.84,-62.59 -54.38,0 -114.91,1.68 -169.81,3.47 -9.35,0.3 -18.79,0.64 -28.22,0.69 -10.83,0.06 -19.26,-3.03 -19.26,9.47z"/>
   <path class="fil4" d="M2143.36 927.89c-0.24,-16.81 -4.09,-61.5 -12.95,-70.63 -6.69,-6.89 -25.76,-4.56 -37.41,-4.56l-82.58 0c-20.41,0 -21.7,-3.76 -19.9,17.84 2.2,26.37 2.23,52.83 2.95,79.45 3.63,133.82 1.1,277.91 1.1,413.72 0,57.29 -5.68,51.8 30.28,51.8 9.63,0 119.24,0.76 123.33,-0.62 6.04,-2.04 5.04,-9.5 5.02,-15.9l-0 -351.46c3.91,-2.66 6.52,-6.74 10.6,-9.9 13.5,-10.46 23.43,-15.74 40.46,-22.07 33.34,-12.39 68.74,-19.18 105.22,-19.75 25.17,-0.39 25.53,2.61 25.51,-16.15l0.01 -125.09c0.09,-16.23 -5.88,-14.8 -27.67,-13.05 -23.62,1.9 -47.17,7.52 -67.07,16 -20.17,8.59 -37.81,19.36 -53.08,30.31l-43.82 40.06z"/>
   <path class="fil5" d="M1518 1047.13c52.93,2.73 109,3.67 155.49,-14.74 12.57,-4.98 31.38,-16.5 39.55,-25.41 4.64,-5.07 6.12,-6.04 10.23,-11.4 12.73,-16.61 18.79,-40.25 19.28,-66.43 1.63,-87.63 -67.93,-119.11 -140.24,-119.25 -19.83,-0.04 -66.34,-0.13 -84.32,1.37l0 235.87z"/>
  </g>
 </g>
</svg>
