<?xml version="1.0" encoding="UTF-8"?>
<!DOCTYPE svg PUBLIC "-//W3C//DTD SVG 1.1//EN" "http://www.w3.org/Graphics/SVG/1.1/DTD/svg11.dtd">
<!-- Creator: CorelDRAW 2017 -->
<svg xmlns="http://www.w3.org/2000/svg" xml:space="preserve" width="3.70333in" height="2.08333in" version="1.1" style="shape-rendering:geometricPrecision; text-rendering:geometricPrecision; image-rendering:optimizeQuality; fill-rule:evenodd; clip-rule:evenodd"
viewBox="0 0 3703 2083"
 xmlns:xlink="http://www.w3.org/1999/xlink"
 enable-background="new 0 0 512 512">
 <defs>
  <style type="text/css">
   <![CDATA[
    .fil5 {fill:black}
    .fil3 {fill:#24D1F8}
    .fil2 {fill:#68DBF9}
    .fil15 {fill:#6E4D42}
    .fil10 {fill:#8B6D62}
    .fil4 {fill:#9CE6FB}
    .fil13 {fill:#BA1E1E}
    .fil12 {fill:#D02E2E}
    .fil11 {fill:#E37171}
    .fil14 {fill:#E43935}
    .fil0 {fill:#E6E7E8}
    .fil7 {fill:#FEFEFE}
    .fil8 {fill:black;fill-rule:nonzero}
    .fil6 {fill:#BD2223;fill-rule:nonzero}
    .fil9 {fill:#373435;fill-opacity:0.031373}
    .fil1 {fill:#373435;fill-opacity:0.101961}
   ]]>
  </style>
 </defs>
 <g id="Layer_x0020_1">
  <metadata id="CorelCorpID_0Corel-Layer"/>
  <polygon class="fil0" points="-3,0 3706,0 3706,2083 -3,2083 "/>
  <path class="fil1" d="M-3 1992l0 -4 0 -2 0 -3 0 -4 0 -6 0 -3 0 -7 0 -9 0 0 0 -2 0 -1 0 -16 0 -2 0 -2 0 -4 0 -3 0 0 0 -1 0 -3 0 -1 0 -15 0 -4 0 -8 0 -25 0 -1 0 -8 0 -4 0 -10 0 -1 0 -11 0 -8 0 -12 0 -28 0 -1 0 -29 0 -2 0 -2 0 -10 0 -15 0 -54 0 -8 0 -19 0 -9 0 -9 0 -13 0 -28 0 -9 0 -8 0 -3 0 -9 0 -102 0 -156 0 0 0 0 0 0 0 0 0 -31 0 0 0 -12 0 -120 0 -11 0 -1 0 -16 0 -1 0 -19 0 -2 0 -19 0 -2 1119 -779 -10 7 -9 8 -9 9 -8 10 -6 11 -5 11 57 -40 -16 13 0 1 31 -21 5 -2 5 -2 6 -2 6 -1 6 -1 6 -1 6 0 6 0 21 3 20 7 18 10 15 13 13 16 10 18 6 20 2 21 0 0 0 178 263 0 25 -16 -3 2 -2 3 -2 3 -1 4 0 4 0 0 72 0 372 -239 -16 11 -15 12 -15 13 -14 13 -13 14 -9 11 93 -59 32 -19 34 -16 36 -13 37 -10 38 -6 40 -2 39 2 38 6 37 10 36 13 34 16 32 19 30 22 27 25 25 28 22 30 19 32 16 34 13 36 10 37 6 38 2 40 -2 39 -6 38 -10 37 -13 36 -16 34 -19 32 -22 30 -25 28 -27 25 -30 22 -32 19 -96 54 12 -3 19 -5 19 -6 18 -7 18 -8 18 -9 -211 120 0 14 0 4 1 4 2 3 2 3 3 2 3 2 4 1 4 0 4 0 4 -1 3 -2 -106 60 0 40 85 -47 -3 2 -2 3 -2 3 -1 4 0 4 0 267 0 3 0 3 -1 3 -1 3 -1 3 -2 3 -2 3 -2 2 -2 2 -3 2 -3 2 -43 23 7 0 1 0 10 0 9 0 10 -1 10 -3 -43 23 1 0 22 0 0 0 7 0 7 -1 7 -2 6 -2 6 -3 -157 84 0 39 36 -19 16 0 5 0 5 0 4 0 4 0 4 0 3 0 3 0 2 0 3 1 3 1 2 1 2 1 2 1 2 1 2 1 2 2 2 2 2 2 2 2 1 2 1 2 1 2 1 3 1 3 1 3 1 3 1 4 0 4 0 4 0 5 0 5 0 5 0 5 0 5 0 5 -1 4 -1 4 -1 4 -1 3 -1 3 -1 3 -1 3 -1 2 -1 2 -1 2 -1 2 -1 2 -2 2 -2 1 -2 1 -2 1 -2 1 -69 36 45 0 5 0 5 0 5 -1 4 -1 4 -1 4 -1 3 -1 3 -1 4 -1 4 -1 3 -1 3 -2 -524 271 -3 0 -23 0 -43 0 -1 0 -22 0 0 0 -21 0 -1 0 -36 0 -1 0 -62 0 -28 0 -10 0 -3 0 -31 0 -3 0 -18 0 -1 0 -3 0 -6 0 -13 0 -3 0 -14 0 -23 0 -33 0 -15 0 -1 0 0 0 -1 0 -1 0 -3 0 -16 0 -11 0 -1 0 0 0 -10 0 -9 0 -7 0 -3 0 -30 0 -8 0 -10 0 -8 0 0 0 -1 0 -6 0 -12 0 -21 0 -4 0 0 0 -4 0 -23 0 -5 0 -10 0 -3 0 -13 0 -6 0 -5 0 -6 0 -6 0 -18 0 -4 0 -1 0 -2 0 -1 0 -12 0 -12 0 -2 0 -3 0 -3 0 -5 0 -1 0 0 0 -5 0 -1 0 -12 0 -1 0 -1 0 -15 0 -6 0 -4 0 -3 0 -3 0 -2 0 0 0 -4 0 -6 0 -4 0 -8 0 -5 0 0 0 -4 0 -7 0 -2 0 -4 0 -18 0 -4 0 -1 0 0 0 -8 0 -4 0 -2 0 -8 0 -4 0 -1 0 -3 0 -2 0 -4 0 -22 0 -4 0 -1 0 -11 0 -5 0 -21 0 -2 0 -3 0 -1 0 -7 0 -4 0 0 0 -5 0 -1 0 -2 0 -12 0 -17 0 -21 0 -5 0 -4 0 0 0 -1 0 -7 0 -4 0 -6 0 -1 0 -4 0 -7 0 -17 0 -13 0 -9 0 -31 0 -3 0 -6 0 -4 0 -8 0 -13 0 -4 0 -12 0 -11 0 -32 0 -5 0 -5 0 -8 0 0 0 -7 0 -8 0 -15 0 -13 0 -5 0 -20 0 -6 0 -4 0 -5 0 -9 0 -7 0 -6 0 -1 0 -2 0 -13 0 -6 0 -9 0 0 0 -6 0 -7 0 -15 0 -3 0 -1 0 -3 0 -13 0 -31 0 -18 0 0 0 -10 0 -2 0 -5 0 -2 0 0 0 -2 0 0 0 -7 0 -9 0 0 0 -19 0 -9 0 0 0 -1 0 -1 0 -8 0 0 0 -1 0 -15 0 0 0 0 0 -1 0 0 0 -1 0 -3 0 -1 0 -5 0 -4 0 -1 0 -6 0 -3 0 -2 0 -8 0 -8 0 -1 0 -3 0 -2 0 -2 0 -1 0 0 0 -2 0 -5 0 -2 0 0 0 -8 0 -5 0 -4 0 -1 0 0 0 -3 0 -1 0 -5 0 -4 0 -4 0 0 0 0 -6 0 -1 0 0 0 -1 0 -12 0 -3 0 -2 0 -1 0 -9 0 -2 0 -3 0 -6 0 -1 0 -1 0 -9 0 -3 0 -9 0 -10 0 -5 0 -6 0 0zm1591 -1444l0 0zm0 0l0 0zm0 0l0 0z"/>
  <g id="_2199272805360">
   <g>
    <g>
     <path class="fil2" d="M1079 567l0 881c0,60 49,109 108,108 50,-1 798,0 1002,0 28,0 51,-23 51,-51l0 -886c0,-28 -23,-51 -51,-51l-1111 0c0,0 0,0 0,0l0 0z"/>
     <g>
      <path class="fil3" d="M1342 567l0 796c0,38 -31,69 -69,69l-2 0c-18,0 -35,-7 -49,-20 -10,-10 -24,-16 -38,-16 -27,0 -113,63 2,160 -60,1 -108,-48 -108,-108l0 -881c0,0 0,0 0,0l264 0 0 0z"/>
      <path class="fil3" d="M2241 618l0 886c0,28 -23,51 -51,51 -24,0 -55,0 -92,0 27,-2 48,-24 48,-51l0 -886c0,-28 -23,-51 -51,-51l-1015 0 0 0 1111 0c28,0 51,23 51,51l0 0 0 0z"/>
     </g>
    </g>
    <path class="fil4" d="M1271 1380l2 0c10,0 18,-8 18,-18l0 -974c0,-58 -46,-107 -104,-108 -59,-1 -108,47 -108,106l0 1064c0,-59 48,-106 106,-106 29,0 55,12 74,30 3,3 8,5 13,5l0 0z"/>
    <path class="fil2" d="M1291 388l0 974c0,10 -8,18 -18,18l-2 0c-5,0 -9,-2 -13,-5 -15,-15 -34,-25 -56,-29l0 -958c0,-43 -26,-81 -63,-98 14,-6 29,-10 46,-9 58,1 104,50 104,108l0 0 0 0z"/>
   </g>
   <g>
    <path class="fil5" d="M2241 1218c-11,0 -19,9 -19,19l0 267c0,9 -3,17 -9,23 -6,6 -14,9 -23,9 -223,0 -953,-1 -1003,0 -23,0 -45,-8 -62,-25 -17,-17 -26,-39 -27,-63 1,-47 39,-85 87,-85 23,0 44,9 61,25 7,7 16,11 26,11l2 0c20,0 37,-17 37,-37l0 -138c0,-11 -9,-19 -19,-19 -11,0 -19,9 -19,19l0 136c-23,-23 -54,-35 -87,-35 -34,0 -64,13 -87,35l0 -974c0,-24 9,-46 26,-62 17,-16 39,-25 62,-25 47,1 85,41 85,89l0 752c0,11 9,19 19,19 11,0 19,-9 19,-19l0 -60 312 0 0 279c0,11 9,19 19,19l439 0c11,0 19,-9 19,-19l0 -677c0,-11 -9,-19 -19,-19l-770 0 0 -77 194 0 0 0c11,0 19,-9 19,-19 0,-11 -9,-19 -19,-19l-194 0 0 -159c0,-69 -55,-126 -123,-127 -34,-1 -66,12 -90,36 -24,24 -38,56 -38,89l0 1064c0,1 0,1 0,2 1,32 15,64 38,86 24,23 54,36 87,36 1,0 2,0 3,0 49,-1 779,0 1002,0l0 0c19,0 37,-7 50,-21 13,-13 21,-31 21,-50l0 -267c0,-11 -9,-19 -19,-19l0 0zm-931 -259c42,8 75,41 83,83l-83 0 0 -83zm433 121c-8,42 -41,75 -83,83l0 -83 83 0zm-83 260l0 -138c63,-9 113,-59 122,-122l279 0 0 260 -400 0 0 0zm400 -535l-68 0 0 -36 68 0 0 36zm-68 39l68 0 0 36 -68 0 0 -36zm68 -113l-68 0 0 -30 68 0 0 30zm-400 -30l98 0 0 133 -98 0 0 -133zm-38 0l0 235 -22 0c-11,0 -19,9 -19,19 0,11 9,19 19,19l41 0c11,0 19,-9 19,-19l0 -83 118 0c11,0 19,-9 19,-19l0 -152 157 0 0 235 -20 0c-11,0 -19,9 -19,19 0,11 9,19 19,19l39 0c11,0 19,-9 19,-19l0 -38 68 0 0 124 -414 0c-1,0 -2,0 -3,0 -1,0 -2,0 -3,0l-210 0c-8,-63 -58,-113 -121,-121l0 -219 312 0 0 0 0 0z"/>
    <path class="fil5" d="M2189 548l-600 0c0,0 0,0 0,0 -11,0 -19,9 -19,19 0,11 9,19 19,19l600 0c18,0 32,14 32,32l0 535c0,11 9,19 19,19 11,0 19,-9 19,-19l0 -535c0,-39 -32,-71 -71,-71l0 0z"/>
    <path class="fil5" d="M1165 1440l0 19c0,11 9,19 19,19 11,0 19,-9 19,-19l0 -19c0,-11 -9,-19 -19,-19 -11,0 -19,9 -19,19z"/>
    <path class="fil5" d="M1284 1421c-11,0 -19,9 -19,19l0 19c0,11 9,19 19,19 11,0 19,-9 19,-19l0 -19c0,-11 -9,-19 -19,-19z"/>
    <path class="fil5" d="M1364 1440l0 19c0,11 9,19 19,19 11,0 19,-9 19,-19l0 -19c0,-11 -9,-19 -19,-19 -11,0 -19,9 -19,19z"/>
    <path class="fil5" d="M1464 1440l0 19c0,11 9,19 19,19 11,0 19,-9 19,-19l0 -19c0,-11 -9,-19 -19,-19 -11,0 -19,9 -19,19z"/>
    <path class="fil5" d="M1563 1440l0 19c0,11 9,19 19,19 11,0 19,-9 19,-19l0 -19c0,-11 -9,-19 -19,-19 -11,0 -19,9 -19,19z"/>
    <path class="fil5" d="M1663 1440l0 19c0,11 9,19 19,19 11,0 19,-9 19,-19l0 -19c0,-11 -9,-19 -19,-19 -11,0 -19,9 -19,19z"/>
    <path class="fil5" d="M1762 1440l0 19c0,11 9,19 19,19 11,0 19,-9 19,-19l0 -19c0,-11 -9,-19 -19,-19 -11,0 -19,9 -19,19z"/>
    <path class="fil5" d="M1861 1440l0 19c0,11 9,19 19,19 11,0 19,-9 19,-19l0 -19c0,-11 -9,-19 -19,-19 -11,0 -19,9 -19,19z"/>
    <path class="fil5" d="M1961 1440l0 19c0,11 9,19 19,19 11,0 19,-9 19,-19l0 -19c0,-11 -9,-19 -19,-19 -11,0 -19,9 -19,19z"/>
    <path class="fil5" d="M2079 1421c-11,0 -19,9 -19,19l0 19c0,11 9,19 19,19 11,0 19,-9 19,-19l0 -19c0,-11 -9,-19 -19,-19z"/>
   </g>
  </g>
  <path class="fil6" d="M1284 1821l-39 0 -16 -41 -73 0 -16 41 -39 0 71 -181 39 0 73 181 -1 0 1 0zm-68 -71l-25 -68 -25 68 50 0 0 0 -1 0zm174 71l0 -19c-5,6 -11,13 -18,16 -7,5 -16,6 -25,6 -8,0 -16,-2 -24,-5 -6,-5 -12,-10 -16,-17 -4,-6 -5,-16 -5,-29l0 -83 35 0 0 60c0,18 1,30 2,34 1,5 4,7 6,10 4,2 7,4 13,4 6,0 11,-2 17,-5 4,-4 7,-7 10,-12 2,-5 2,-16 2,-36l0 -56 35 0 0 132 -33 0 0 1 1 -1 0 0zm128 -132l0 28 -24 0 0 53c0,11 0,17 1,18 0,2 1,4 4,5 1,1 4,2 6,2 4,0 7,-1 14,-4l4 28c-7,4 -17,6 -27,6 -6,0 -12,-1 -18,-4 -5,-2 -8,-4 -11,-8 -2,-4 -5,-7 -6,-14 -1,-5 -1,-12 -1,-25l0 -58 -16 0 0 -28 16 0 0 -26 35 -21 0 47 24 0 0 1 0 0 0 0zm16 64c0,-12 4,-23 8,-34 5,-11 14,-19 24,-25 11,-6 22,-8 35,-8 19,0 36,6 49,19 13,13 19,29 19,49 0,19 -6,37 -19,50 -13,13 -29,19 -49,19 -12,0 -24,-4 -35,-8 -11,-5 -19,-13 -25,-24 -6,-11 -8,-24 -8,-38l1 0 0 0 0 0zm36 2c0,13 4,23 10,30 6,6 14,11 23,11 8,0 16,-4 23,-11 6,-6 8,-17 8,-30 0,-13 -4,-23 -8,-29 -6,-6 -14,-11 -23,-11 -8,0 -16,4 -23,11 -6,6 -10,17 -10,30l0 -1zm244 -1l36 11c-6,19 -14,35 -28,45 -13,10 -28,14 -48,14 -24,0 -43,-8 -60,-25 -16,-16 -23,-39 -23,-68 0,-30 7,-53 24,-71 16,-17 36,-25 62,-25 22,0 40,6 54,19 8,7 14,18 18,34l-36 8c-2,-10 -6,-16 -13,-23 -6,-5 -16,-8 -25,-8 -13,0 -24,5 -33,14 -8,10 -13,25 -13,47 0,23 5,39 12,48 8,10 19,14 33,14 10,0 18,-4 25,-10 6,-6 12,-17 16,-29l-2 4 -1 1 0 0zm231 68l-39 0 -16 -41 -73 0 -16 41 -39 0 71 -181 39 0 73 181 -1 0 1 0zm-68 -71l-25 -68 -25 68 50 0 0 0 -1 0zm87 -110l68 0c16,0 26,1 35,4 11,4 19,8 28,17 7,7 13,17 17,29 5,12 6,26 6,42 0,16 -2,28 -6,39 -5,13 -11,24 -19,33 -6,6 -16,11 -26,14 -7,2 -18,5 -33,5l-69 0 0 -181 -1 -1 0 0zm37 30l0 121 28 0c10,0 17,-1 22,-2 5,-1 11,-5 16,-7 5,-4 7,-10 10,-17 2,-7 4,-19 4,-34 0,-14 -1,-25 -4,-33 -2,-7 -6,-13 -11,-17 -4,-5 -10,-6 -17,-8 -5,-1 -16,-2 -30,-2l-16 0 1 1 -1 -1 0 0z"/>
  <circle class="fil7" cx="2240" cy="663" r="387"/>
  <path class="fil8" d="M2240 259c112,0 213,45 286,118 73,73 118,175 118,286 0,112 -45,213 -118,286 -73,73 -174,118 -286,118 -112,0 -213,-45 -286,-118 -73,-73 -118,-174 -118,-286 0,-112 45,-213 118,-286 73,-73 175,-118 286,-118zm260 145c-66,-66 -158,-107 -260,-107 -102,0 -193,41 -260,107 -66,66 -107,158 -107,260 0,102 41,193 107,260 66,66 158,107 260,107 102,0 193,-41 260,-107 66,-66 107,-158 107,-260 0,-102 -41,-193 -107,-260z"/>
  <path class="fil9" d="M214 1826c7,11 12,21 16,33 3,7 5,19 21,19 4,0 11,-1 17,-5 7,-3 12,-9 14,-17l6 -21 15 -8 1 1c-2,8 -3,15 -3,21 0,18 15,24 27,24 7,0 13,-3 13,-10 0,-8 -4,-23 -8,-35 7,-7 14,-14 22,-20l1 1c4,15 6,30 6,40 0,10 -4,20 -8,27 -7,14 -20,25 -36,25 -12,0 -25,-6 -34,-17l-1 0c-9,11 -22,20 -43,20l-7 0c-1,14 -4,24 -9,33 -13,25 -50,42 -85,42 -49,0 -74,-28 -74,-66 0,-23 8,-45 19,-60l10 4c-7,14 -12,27 -12,40 0,35 29,52 62,52 31,0 68,-20 75,-42 -3,-25 -12,-36 -26,-59 4,-8 10,-15 17,-23l1 0 0 0zm565 -133c10,6 21,14 30,23 -6,8 -12,15 -21,21 -10,-8 -20,-15 -30,-22 7,-8 14,-15 21,-22l0 0 0 0 0 0 0 0 0 0zm5 96c-17,0 -30,11 -30,19 0,17 33,23 73,23 -5,-20 -23,-42 -43,-42l0 0 0 0 0 0 0 0zm-37 93c22,0 41,-1 55,-4 16,-4 30,-12 30,-18 0,-1 0,-3 -1,-5 -9,1 -19,1 -29,1 -29,0 -52,-7 -61,-23 -2,-4 -4,-10 -4,-15 0,-16 7,-31 19,-42 10,-9 21,-14 33,-14 21,0 37,17 48,43 6,14 11,31 11,51 0,14 -4,25 -12,34 -16,16 -45,21 -90,21l-21 0 0 0 -5 0c-11,0 -19,-2 -26,-7l-1 0c0,3 1,5 1,8 0,10 -3,23 -10,33 -20,30 -42,43 -60,43 -19,0 -42,-7 -63,-17l4 -7c7,3 16,5 29,5 34,0 78,-33 84,-64 -1,-3 -4,-6 -7,-10 -10,-12 -16,-22 -22,-32 5,-10 10,-18 14,-25l2 0c14,29 28,46 57,46l5 0 0 0 21 0 0 0 0 0 0 0 0 0 0 0zm-147 31c3,-14 3,-29 3,-43l0 -21c0,-39 -5,-96 -9,-134 7,-8 17,-17 25,-23l2 1c5,47 7,101 7,151 0,13 -1,26 -2,35 -1,12 -8,21 -22,35l-3 -1 0 0 0 0 0 0 0 0 0 0zm-151 -62c1,18 10,33 41,33 20,0 36,-5 55,-14 3,-1 5,-3 5,-5 0,-12 -9,-27 -24,-41 -14,-13 -34,-25 -52,-32 -6,-3 -8,-5 -8,-8 0,-5 7,-17 13,-24l2 0c21,11 44,27 60,44 15,16 25,33 25,51 0,13 -4,26 -11,37 -23,11 -47,20 -70,20 -29,0 -49,-14 -49,-45 0,-3 0,-9 1,-16l10 0 0 0 0 0 0 0 0 0zm-52 -53l18 29c7,11 13,22 13,41l0 23c0,19 -12,40 -32,60 -15,14 -29,19 -42,19 -19,0 -40,-6 -65,-16l3 -7c8,2 17,4 28,4 36,0 72,-26 89,-58 2,-4 3,-7 3,-9 0,-4 -2,-8 -4,-11 -9,-17 -19,-33 -30,-47 6,-9 12,-18 18,-27l1 0 0 0 0 0 0 0 0 0 0 0z"/>
  <g id="_1981854294736">
   <path class="fil10" d="M2177 561c-3,4 -6,12 -8,17 -3,6 -5,11 -8,17 -5,12 -10,23 -16,35 6,-2 55,-33 59,-34l15 -34c3,-6 5,-11 7,-17 2,-5 6,-13 8,-18 -2,2 -5,3 -7,4 -3,1 -4,3 -7,4l-28 16c-3,2 -11,7 -14,8l-1 2 0 1z"/>
   <path class="fil10" d="M2273 602l33 -20c1,-1 1,-1 1,-1l-9 -20 -14 -8c-14,-8 -29,-17 -43,-25l16 37c3,7 14,31 16,37l0 0 1 0z"/>
   <path class="fil11" d="M2371 871c2,2 11,1 15,1l40 0c2,0 5,0 7,0l1 0c-1,0 0,1 -2,-4l-43 -105c-5,-12 -11,-24 -15,-36l-2 0 -44 6c1,5 4,13 6,17 12,34 24,70 34,103 1,2 6,16 4,17l-1 0 0 1z"/>
   <path class="fil11" d="M2084 774c-3,2 -5,8 -6,12l-33 80c-2,4 -1,5 -3,5 1,1 1,1 3,1 15,0 36,0 52,0 3,0 6,1 7,-1 -1,-1 0,-2 1,-7l15 -48c5,-15 14,-40 18,-54 -5,0 -33,7 -43,8 -4,1 -10,3 -13,3l1 0 0 1z"/>
   <path class="fil11" d="M2145 630c-2,3 -26,58 -27,63 3,-1 12,-7 16,-9l47 -27c-1,-1 2,-6 2,-7 1,-3 2,-5 3,-7 2,-5 4,-10 6,-15l12 -30c-4,1 -54,31 -59,34l1 -1 -1 0z"/>
   <path class="fil12" d="M2273 602l-94 55 -47 27c-3,2 -12,8 -16,9 2,-5 25,-59 27,-63 5,-12 10,-23 16,-35 3,-6 5,-12 8,-17 3,-5 5,-12 8,-17 2,-6 24,-50 27,-55 9,-15 13,-24 23,-38 5,-7 10,-14 17,-5 10,14 19,28 27,44 5,9 9,17 14,27l13 27 9 20c0,1 0,0 -1,1l-33 20 0 -1 0 0zm-230 269c2,0 1,-1 3,-5l33 -80c1,-3 3,-10 6,-12l-1 0c5,-11 12,-29 17,-41 2,-5 1,-4 6,-6 30,-12 54,-21 87,-32 12,-4 24,-8 35,-11 22,-7 51,-15 74,-21 6,-2 12,-3 18,-5 6,-2 13,-4 19,-5 2,2 24,55 28,64 1,3 3,7 4,9l-2 1 2 0c4,12 10,24 15,36l43 105c2,5 1,3 2,4 4,-1 18,-9 23,-11 -1,-13 -26,-114 -30,-129 -1,-5 -10,-38 -12,-41 -2,-1 -1,-2 -3,-5 -9,-25 -20,-51 -31,-76 -29,-67 -68,-143 -107,-205l-8 -13c-1,-2 -2,-3 -3,-4 -2,0 -41,1 -47,0 -1,0 -1,0 -1,0 0,0 0,0 0,0 0,0 0,0 0,0l-35 0c-2,0 -6,11 -7,13 -36,78 -56,126 -84,213 -13,40 -25,80 -36,122 -9,32 -16,63 -23,95 -1,5 -2,11 -4,16 -1,5 -3,12 -3,17 5,2 20,11 23,11l0 -1 -2 -2z"/>
   <path class="fil13" d="M2084 774c4,0 9,-2 13,-3 8,-2 37,-9 43,-8 -4,13 -13,38 -18,54l-15 48c-1,5 -2,6 -1,7l35 -23c2,-25 2,-41 6,-67 1,-4 1,-7 2,-10 2,-14 -1,-10 22,-14 34,-6 71,-12 105,-17 14,-2 30,-5 43,-6 0,0 0,0 1,1 3,7 9,47 10,52 2,19 5,40 5,59 1,2 30,20 35,24 2,-1 -4,-15 -4,-17 -10,-34 -22,-70 -34,-103 -2,-5 -5,-13 -6,-17l44 -6 2 -1c-1,-2 -3,-7 -4,-9 -4,-8 -26,-62 -28,-64 -6,1 -13,3 -19,5 -6,2 -13,3 -18,5 -23,7 -51,14 -74,21 -12,4 -24,8 -35,11 -32,11 -55,20 -87,32 -5,2 -4,1 -6,6 -5,12 -12,30 -17,41l1 0 -1 -1 0 1z"/>
   <path class="fil14" d="M2415 691c-1,-6 -4,-14 -6,-21 -20,-67 -49,-149 -76,-213 -5,-12 -11,-24 -16,-36 -3,-6 -6,-12 -8,-18 -1,-3 -3,-6 -4,-9 -1,-2 -3,-8 -5,-8l-84 0c0,0 0,0 0,0 0,0 0,0 0,0 1,0 0,0 1,0 5,0 43,0 47,0 2,1 2,2 3,4l8 13c39,63 79,138 107,205 11,25 21,51 31,76 1,4 1,4 3,5l0 1 -1 1z"/>
   <path class="fil15" d="M2177 561c3,-1 11,-6 14,-8l28 -16c3,-1 4,-3 7,-4 2,-1 5,-3 7,-4 1,-1 1,-2 2,-3l2 -4 3 7c13,9 29,17 43,25l14 8 -13 -27c-5,-9 -9,-18 -14,-27 -8,-15 -17,-30 -27,-44 -7,-9 -12,-3 -17,5 -10,14 -14,23 -23,38 -3,5 -25,48 -27,55l1 0 -2 0z"/>
  </g>
 </g>
</svg>
