<?xml version="1.0" encoding="UTF-8"?>
<!DOCTYPE svg PUBLIC "-//W3C//DTD SVG 1.0//EN" "http://www.w3.org/TR/2001/REC-SVG-20010904/DTD/svg10.dtd">
<!-- Creator: CorelDRAW 2017 -->
<svg xmlns="http://www.w3.org/2000/svg" xml:space="preserve" width="356px" height="200px" version="1.0" shape-rendering="geometricPrecision" text-rendering="geometricPrecision" image-rendering="optimizeQuality" fill-rule="evenodd" clip-rule="evenodd" viewBox="0 0 35600 20025" xmlns:xlink="http://www.w3.org/1999/xlink">
 <g id="__x0023_Layer_x0020_1">
  <metadata id="CorelCorpID_0Corel-Layer"/>
  <g id="_2501313008432">
   <path fill="#E6E7E8" d="M0 0l35600 0 0 20025 -35600 0 0 -20025z"/>
   <path fill="#373435" fill-opacity="0.031373" d="M2082 17547c68,104 112,203 155,312 32,64 49,183 199,183 44,0 107,-14 163,-45 63,-33 111,-83 136,-159l60 -202 146 -72 10 10c-20,77 -25,149 -25,206 0,170 146,234 262,234 68,0 129,-34 129,-95 0,-81 -34,-217 -78,-339 68,-68 136,-136 214,-191l12 6c34,144 53,287 53,381 0,93 -41,196 -75,264 -70,132 -194,238 -344,238 -114,0 -241,-58 -328,-163l-5 0c-82,101 -209,193 -412,193l-63 0c-10,134 -39,229 -83,314 -121,237 -480,404 -818,404 -470,0 -706,-272 -706,-633 0,-223 73,-431 185,-578l92 38c-70,134 -117,262 -117,385 0,338 275,499 592,499 294,0 658,-187 724,-404 -25,-237 -114,-348 -250,-565 41,-72 94,-144 160,-221l12 0zm5421 -1274c99,62 196,136 291,221 -53,74 -119,142 -201,202 -95,-77 -190,-143 -287,-213 66,-74 131,-146 197,-210zm51 926c-160,0 -291,105 -291,183 0,168 320,219 703,217 -48,-196 -216,-400 -412,-400zm-359 895c208,0 390,-6 529,-41 155,-39 286,-118 286,-171 0,-15 0,-31 -5,-46 -87,8 -187,8 -274,8 -282,0 -498,-64 -583,-222 -21,-44 -36,-93 -36,-149 0,-152 66,-303 182,-406 97,-85 204,-138 313,-138 197,0 354,158 464,408 60,136 101,293 101,491 0,132 -36,243 -118,326 -153,148 -435,204 -867,204l-196 0 0 0 -51 0c-107,0 -184,-19 -245,-66l-10 0c3,25 5,50 5,72 0,97 -32,221 -97,320 -192,287 -400,410 -580,410 -182,0 -405,-70 -606,-161l36 -70c65,27 155,46 279,46 325,0 752,-314 805,-619 -12,-25 -34,-58 -65,-93 -95,-113 -155,-208 -211,-307 48,-95 92,-171 133,-239l17 -2c139,282 265,445 546,445l44 0 0 0 204 0zm-1408 299c24,-130 26,-276 26,-413l0 -202c0,-377 -48,-926 -87,-1282 68,-75 163,-161 238,-219l22 6c51,450 63,972 63,1452 0,126 -5,250 -17,340 -7,114 -73,201 -214,332l-31 -14zm-1449 -596c7,177 94,318 398,318 189,0 349,-50 526,-135 32,-14 49,-33 49,-49 0,-111 -85,-258 -228,-392 -139,-126 -323,-237 -495,-311 -59,-25 -78,-52 -78,-77 0,-51 68,-158 124,-235l19 -2c197,103 417,256 580,427 148,157 240,316 240,489 0,128 -39,250 -102,361 -216,109 -446,192 -674,192 -277,0 -466,-130 -466,-436 0,-33 0,-84 12,-150l95 0zm-501 -503l172 278c63,103 122,215 122,392l0 227c0,183 -117,379 -306,573 -148,132 -279,188 -400,188 -180,0 -386,-56 -624,-159l27 -70c75,21 162,37 269,37 342,-2 692,-252 852,-557 19,-35 26,-68 26,-90 0,-36 -19,-75 -34,-110 -87,-165 -184,-315 -291,-453 56,-89 112,-174 173,-258l14 2z"/>
   <path fill="#373435" fill-opacity="0.078431" d="M22777 4214l-2826 1817 2904 0 -834 9410 -2734 1757 3545 -985 -5932 3812 -2011 0 -493 0 -1000 0 -449 0 -30 0 -1121 0 -1055 0 -1158 0 -1055 0 -458 0 -1118 0 -1940 0 -2569 0 -1363 0 -942 0 -138 0 0 -790 0 -382 0 -990 0 -64 0 -218 0 -432 0 -24 0 -31 0 -532 0 -25 0 -349 0 -39 0 -8 0 -32 0 -34 0 -316 0 -218 0 -3 0 -7 0 -11 0 -111 0 -315 0 -10 0 -43 0 -491 0 -33 0 -351 0 -71 0 -16 0 -10 0 -293 0 -49 0 -51 0 -257 0 -25 0 -29 0 -25 0 -50 0 -50 0 -215 0 -22 0 -294 0 -43 0 -627 0 -840 14043 -9025 0 128 0 127 0 128 0 127 0 128 0 127 0 75 1306 -840 0 84 0 83 0 84 0 83 0 84 0 84 0 84 0 41 975 -627 0 78 1 78 0 78 0 78 0 78 0 77 0 78 1 78 0 6 0 5 0 6 0 6 0 7 0 6 0 7 0 8 75 0 74 0 75 0 75 0 75 0 76 0 75 0 76 0 0 7 0 7 0 6 0 6 0 6 0 6 0 5 0 6 0 158 0 135 1581 -1016 0 4 0 3 -1 3 0 3 0 4 0 3 0 3 0 4 0 123 0 124 0 124 0 124 0 123 0 124 0 124 0 123 1580 -1016 -40 67 -40 66 -41 67 -40 66 -40 66 -40 67 -41 66 -40 67 -14 22 -13 23 -14 23 -14 22 -14 23 -14 23 -14 24 -15 23 -1146 737 0 18 666 -428 1 0 1 0 1 -1 1 0 0 0 1 0 1 -1 1 0 58 89 42 65 1857 -1194 0 86 1 85 0 85 0 86 0 85 0 85 0 86 0 85 0 85 0 86 0 85 0 85 0 85 0 86 0 85 0 85 0 85 0 84 0 85 0 84 0 84 0 85 0 84 -1 84 103 0 102 0 103 0 102 0 103 0 102 0 103 0 102 0 103 0 102 0 103 0 102 0 103 0 102 0 103 0 102 0z"/>
   <g>
    <g>
     <path fill="#606062" fill-rule="nonzero" d="M18508 2174c237,0 474,0 710,0 6,10 10,20 16,30 129,211 258,423 387,634 10,16 20,31 32,51 39,-63 76,-123 112,-183 108,-177 215,-355 322,-532 237,0 474,0 710,0 1,10 2,20 2,30 0,658 0,1315 0,1973 0,12 -1,25 -2,37 -224,0 -448,0 -672,0 -1,-17 -3,-35 -3,-52 0,-302 0,-604 0,-906 0,-13 0,-26 0,-40 -3,0 -6,-1 -9,-1 -154,238 -308,476 -466,720 -159,-246 -313,-483 -467,-721 -2,1 -5,2 -7,2 0,333 0,666 0,998 -222,0 -443,0 -665,0 0,-11 -1,-22 -1,-33 0,-660 0,-1320 0,-1980 0,-9 1,-18 1,-27z"/>
     <path fill="#606062" fill-rule="nonzero" d="M14722 4214c-226,0 -452,0 -679,0 0,-680 0,-1360 0,-2040 229,0 458,0 687,0 -1,9 -4,17 -4,26 0,206 0,413 0,619 0,8 2,17 3,25 208,0 413,0 620,0 0,-225 0,-447 0,-670 227,0 454,0 681,0 0,680 0,1360 0,2040 -227,0 -454,0 -681,0 0,-227 0,-454 0,-685 -17,0 -31,0 -44,0 -177,0 -353,0 -529,0 -50,0 -50,0 -50,48 0,196 0,393 0,589 0,16 -2,32 -4,48z"/>
     <path fill="#606062" fill-rule="nonzero" d="M16324 2174c627,0 1255,0 1882,0 0,224 0,447 0,675 -200,0 -397,0 -597,0 0,458 0,912 0,1365 -227,0 -454,0 -680,0 -1,-17 -2,-35 -2,-52 0,-422 0,-844 0,-1265 0,-15 0,-29 0,-49 -203,0 -401,0 -601,0 0,-21 0,-36 0,-51 -1,-207 -1,-415 -2,-623z"/>
     <path fill="#606062" fill-rule="nonzero" d="M21137 2174c227,0 454,0 681,0 0,17 1,33 1,49 0,422 0,843 0,1264 0,16 0,32 0,52 322,0 638,0 958,0 0,228 0,452 0,675 -546,0 -1093,0 -1640,0 1,-225 1,-450 1,-675 0,-455 0,-910 -1,-1365z"/>
    </g>
    <g>
     <path fill="#FF4C00" fill-rule="nonzero" d="M12967 5085l1028 11132 4423 1223 4414 -1227 1021 -11128 -10886 0zm9054 10356l0 0 -3580 1054 -31 0 0 -10464 4445 0 -834 9410z"/>
     <path fill="#FF6E00" fill-rule="nonzero" d="M18441 16495l-31 0 0 -10464 4445 0 -834 9410 -3580 1054z"/>
    </g>
    <path fill="#FEFEFE" fill-rule="nonzero" d="M18825 15523l0 -1706 -3461 0 0 -1417 3670 -5398 1367 0 0 5392 1055 0 0 1423 -1055 0 0 1706 -1576 0zm0 -3129l0 -2897 -1940 2897 1940 0z"/>
   </g>
  </g>
 </g>
</svg>