<?xml version="1.0" encoding="UTF-8"?>
<!DOCTYPE svg PUBLIC "-//W3C//DTD SVG 1.1//EN" "http://www.w3.org/Graphics/SVG/1.1/DTD/svg11.dtd">
<!-- Creator: CorelDRAW 2017 -->
<svg xmlns="http://www.w3.org/2000/svg" xml:space="preserve" width="356px" height="200px" version="1.1" style="shape-rendering:geometricPrecision; text-rendering:geometricPrecision; image-rendering:optimizeQuality; fill-rule:evenodd; clip-rule:evenodd"
viewBox="0 0 356000 200000"
 xmlns:xlink="http://www.w3.org/1999/xlink"
 enable-background="new 0 0 512 512">
 <defs>
  <style type="text/css">
   <![CDATA[
    .fil10 {fill:black}
    .fil7 {fill:#394D5C}
    .fil13 {fill:#5C4124}
    .fil3 {fill:#7D8D9C}
    .fil8 {fill:#CFDFE8}
    .fil0 {fill:#E6E7E8}
    .fil6 {fill:#E97424}
    .fil4 {fill:#FCF05A}
    .fil5 {fill:#FDBD40}
    .fil12 {fill:#FEFEFE}
    .fil11 {fill:#FFB749}
    .fil9 {fill:white}
    .fil2 {fill:black;fill-rule:nonzero}
    .fil14 {fill:#373435;fill-opacity:0.031373}
    .fil1 {fill:#373435;fill-opacity:0.101961}
   ]]>
  </style>
 </defs>
 <g id="Layer_x0020_1">
  <metadata id="CorelCorpID_0Corel-Layer"/>
  <polygon class="fil0" points="0,0 356000,0 356000,200000 0,200000 "/>
  <g id="_2884929416944">
   <polygon class="fil0" points="124290,200000 57530,200000 56740,199600 55390,198980 54000,198430 52580,197950 51130,197530 49650,197190 48150,196920 46620,196720 45080,196600 43510,196560 228240,84650 230200,84700 232130,84850 234040,85100 235920,85440 237770,85870 239580,86380 241350,86990 243090,87680 244780,88450 246430,89300 248030,90220 249590,91220 251090,92290 252540,93430 253930,94640 255260,95910 256530,97240 257740,98630 258880,100080 259950,101580 260950,103140 261870,104740 262720,106390 263490,108080 264180,109820 264790,111590 265310,113400 265740,115250 266070,117130 266320,119040 266470,120970 266520,122930 "/>
   <polygon class="fil0" points="95700,200000 76830,200000 251800,99360 252620,100250 253530,101310 254470,102500 255410,103780 256300,105090 257110,106380 257800,107600 258320,108700 "/>
   <polygon class="fil0" points="162540,200000 124290,200000 266520,122930 266470,124890 266320,126820 266070,128730 265740,130610 265310,132460 264790,134270 264180,136040 263490,137780 262720,139470 261870,141120 260950,142730 259950,144280 258880,145780 257740,147230 256530,148620 255260,149950 253930,151220 252540,152430 251090,153570 249590,154640 248030,155640 246430,156570 "/>
   <polygon class="fil0" points="139840,200000 95700,200000 258320,108700 259060,110580 259700,112410 260250,114210 260690,115970 261040,117700 261290,119420 261440,121120 261490,122820 261440,124520 261300,126220 261060,127940 260720,129670 260290,131430 259760,133230 259130,135060 258410,136940 "/>
   <polygon class="fil0" points="95700,200000 76830,200000 251800,99360 252620,100250 253530,101310 254470,102500 255410,103780 256300,105090 257110,106380 257800,107600 258320,108700 "/>
   <polygon class="fil0" points="139840,200000 95700,200000 258320,108700 259060,110580 259700,112410 260250,114210 260690,115970 261040,117700 261290,119420 261440,121120 261490,122820 261440,124520 261300,126220 261060,127940 260720,129670 260290,131430 259760,133230 259130,135060 258410,136940 "/>
   <polygon class="fil0" points="72280,200000 45510,200000 229440,89730 230700,89770 232010,89890 233350,90070 234720,90330 236110,90650 237500,91030 238880,91460 240260,91960 241610,92500 242920,93090 244190,93720 245410,94400 246570,95110 247650,95860 248640,96630 249550,97430 "/>
   <polygon class="fil0" points="91450,200000 88970,200000 244090,112160 243830,113460 243150,114360 "/>
   <polygon class="fil0" points="97180,200000 92640,200000 238400,117840 243790,117840 "/>
   <polygon class="fil0" points="76830,200000 72280,200000 249550,97430 249860,97720 250150,97970 250430,98190 250690,98400 250960,98610 251230,98840 251500,99080 251800,99360 "/>
   <polygon class="fil0" points="72280,200000 45510,200000 229440,89730 230700,89770 232010,89890 233350,90070 234720,90330 236110,90650 237500,91030 238880,91460 240260,91960 241610,92500 242920,93090 244190,93720 245410,94400 246570,95110 247650,95860 248640,96630 249550,97430 "/>
   <polygon class="fil0" points="67250,200000 67180,200000 221250,110260 221660,110070 "/>
   <polygon class="fil0" points="88970,200000 81840,200000 240000,109610 241100,109440 242190,109630 243150,110150 243830,111000 244090,112160 "/>
   <polygon class="fil0" points="29490,200000 29330,200000 208440,90220 210050,89300 211700,88450 213390,87680 215130,86990 216900,86380 218710,85870 220560,85440 222440,85100 224350,84850 226280,84700 228240,84650 43510,196560 41940,196600 40390,196720 38870,196920 37360,197190 35890,197530 34440,197950 33020,198430 31630,198980 30270,199600 "/>
   <polygon class="fil0" points="88970,200000 81840,200000 240000,109610 241100,109440 242190,109630 243150,110150 243830,111000 244090,112160 "/>
   <polygon class="fil0" points="76830,200000 72280,200000 249550,97430 249860,97720 250150,97970 250430,98190 250690,98400 250960,98610 251230,98840 251500,99080 251800,99360 "/>
   <polygon class="fil0" points="128550,200000 97180,200000 243790,117840 243790,137880 "/>
   <polygon class="fil0" points="123830,200000 92640,200000 238400,117840 238400,137880 "/>
   <polygon class="fil0" points="149960,200000 139840,200000 258410,136940 257880,138080 257200,139320 256390,140630 255500,141950 254560,143240 253610,144460 252670,145550 251800,146490 "/>
   <polygon class="fil0" points="152720,200000 149960,200000 251800,146490 250710,147520 249560,148510 248350,149460 247080,150350 245750,151200 244390,152000 "/>
   <polygon class="fil0" points="91450,200000 88970,200000 244090,112160 243830,113460 243150,114360 "/>
   <polygon class="fil0" points="77610,200000 67250,200000 221660,110070 223960,110050 225590,110020 226700,110060 227400,110210 227830,110530 228110,111100 228360,111960 228720,113170 "/>
   <polygon class="fil0" points="128550,200000 123830,200000 238400,137880 243790,137880 "/>
   <polygon class="fil0" points="122260,200000 109100,200000 234400,130810 234660,131540 234970,132420 235320,133390 235680,134410 236010,135420 236300,136370 236510,137200 236610,137880 "/>
   <polygon class="fil0" points="109100,200000 77610,200000 228720,113170 234400,130810 "/>
   <polygon class="fil0" points="117270,200000 102910,200000 228540,130100 228750,130620 229060,131520 229440,132670 229840,133950 230240,135230 230580,136400 230820,137320 230930,137880 "/>
   <line class="fil0" x1="224050" y1="114550" x2="224050" y2= "114550" />
   <polygon class="fil0" points="95700,200000 78030,200000 224540,115860 224840,116950 225200,118260 225610,119710 226050,121200 226490,122660 226910,123990 227300,125110 227640,125920 "/>
   <polygon class="fil0" points="95700,200000 78030,200000 224540,115860 224840,116950 225200,118260 225610,119710 226050,121200 226490,122660 226910,123990 227300,125110 227640,125920 "/>
   <polygon class="fil0" points="102910,200000 95410,200000 219860,130100 228540,130100 "/>
   <polygon class="fil0" points="122260,200000 117270,200000 230930,137880 236610,137880 "/>
   <polygon class="fil0" points="74400,200000 67180,200000 221250,110260 220870,110770 220510,111530 220170,112480 219840,113530 219520,114610 219220,115670 218930,116610 "/>
   <line class="fil0" x1="224050" y1="114550" x2="224050" y2= "114550" />
   <polygon class="fil0" points="102530,200000 98420,200000 219160,132440 219060,133350 218800,134200 218380,134970 217830,135640 217160,136190 "/>
   <polygon class="fil0" points="105470,200000 95410,200000 219860,130100 217480,137880 "/>
   <polygon class="fil0" points="74080,200000 32620,200000 32620,181110 214630,65340 214630,118870 "/>
   <polygon class="fil0" points="78030,200000 75720,200000 224050,114550 224540,115860 "/>
   <polygon class="fil0" points="78030,200000 75720,200000 224050,114550 224540,115860 "/>
   <line class="fil0" x1="212090" y1="137880" x2="212090" y2= "137880" />
   <polygon class="fil0" points="105470,200000 100740,200000 212090,137880 217480,137880 "/>
   <polygon class="fil0" points="149960,200000 139840,200000 258410,136940 257880,138080 257200,139320 256390,140630 255500,141950 254560,143240 253610,144460 252670,145550 251800,146490 "/>
   <polygon class="fil0" points="152720,200000 149960,200000 251800,146490 250710,147520 249560,148510 248350,149460 247080,150350 245750,151200 244390,152000 "/>
   <polygon class="fil0" points="0,151540 0,103760 97000,28380 214630,28380 32620,151540 "/>
   <polygon class="fil0" points="110690,200000 108710,200000 214630,141490 216450,141300 218150,140780 219690,139940 "/>
   <polygon class="fil0" points="159510,200000 151370,200000 228240,159680 230120,159630 231980,159490 233810,159250 235610,158930 237380,158510 239120,158020 240830,157430 242490,156770 244120,156030 245700,155220 "/>
   <polygon class="fil0" points="82890,200000 74400,200000 218930,116610 218650,117460 218380,118320 218100,119190 217830,120070 217550,120950 217270,121840 216990,122740 216690,123640 "/>
   <polygon class="fil0" points="45510,200000 36860,200000 211650,93970 212980,93260 214350,92620 215760,92050 217200,91540 218670,91100 220160,90730 221670,90420 223210,90170 224750,89980 226310,89840 227870,89760 229440,89730 "/>
   <polygon class="fil0" points="77910,200000 74080,200000 214630,118870 219160,118870 "/>
   <polygon class="fil0" points="45510,200000 36860,200000 211650,93970 212980,93260 214350,92620 215760,92050 217200,91540 218670,91100 220160,90730 221670,90420 223210,90170 224750,89980 226310,89840 227870,89760 229440,89730 "/>
   <polygon class="fil0" points="214630,65340 32620,181110 32540,180260 32290,179470 31900,178750 31380,178120 30750,177600 30030,177210 29240,176970 28390,176880 209340,60050 210400,60160 211400,60470 212300,60960 213080,61600 213730,62390 214220,63280 214520,64280 "/>
   <polygon class="fil0" points="165580,200000 156760,200000 228240,162740 230280,162690 232290,162530 234280,162280 236230,161930 238150,161480 240030,160940 241880,160310 243680,159600 245450,158800 247160,157910 "/>
   <polygon class="fil0" points="151370,200000 109630,200000 202300,148870 203580,150090 204920,151250 206300,152340 207750,153370 209240,154330 210780,155220 212360,156030 213990,156770 215650,157430 217360,158020 219100,158510 220870,158930 222670,159250 224500,159490 226360,159630 228240,159680 "/>
   <line class="fil0" x1="212090" y1="137880" x2="212090" y2= "137880" />
   <polygon class="fil0" points="75490,200000 30810,200000 30810,181110 212370,65340 212370,121130 "/>
   <polygon class="fil0" points="98420,200000 84630,200000 219160,123390 219160,132440 "/>
   <polygon class="fil0" points="212370,41960 30810,162400 30810,173260 212370,55530 "/>
   <polygon class="fil0" points="214630,28380 32620,151540 33350,151620 34030,151830 34640,152160 35180,152610 35620,153140 35960,153750 36170,154430 36240,155160 219160,32910 219060,32000 218800,31150 218380,30380 217830,29710 217160,29160 216390,28740 215540,28470 "/>
   <polygon class="fil0" points="207850,46480 27190,166020 27190,173260 207850,55530 "/>
   <polygon class="fil0" points="185220,46480 9090,166020 27190,166020 207850,46480 "/>
   <polygon class="fil0" points="0,103760 0,102720 94470,29160 95240,28740 96090,28470 97000,28380 "/>
   <line class="fil0" x1="97000" y1="28380" x2="97000" y2= "28380" />
   <polygon class="fil0" points="207850,55530 27190,173260 30810,173260 212370,55530 "/>
   <polygon class="fil0" points="209340,60050 28390,176880 27900,176910 27420,176990 26960,177130 26520,177310 26100,177550 206480,60890 207000,60600 207550,60360 208130,60190 208730,60090 "/>
   <polygon class="fil0" points="212370,65340 30810,181110 30760,180630 30620,180170 30400,179760 30100,179400 29740,179100 29330,178880 28870,178740 28390,178690 209340,62310 209950,62380 210520,62550 211030,62830 211480,63200 211850,63650 212130,64160 212310,64730 "/>
   <polygon class="fil0" points="210110,65350 29000,181110 29000,194980 210110,82670 "/>
   <polygon class="fil0" points="38650,200000 34980,200000 205580,96250 210110,96250 "/>
   <polygon class="fil0" points="40480,200000 34980,200000 205580,96250 212370,96250 "/>
   <polygon class="fil0" points="0,103100 0,100190 93200,27280 92200,28110 91370,29110 90750,30260 90350,31540 90210,32910 "/>
   <polygon class="fil0" points="0,158190 0,129420 115100,44220 115660,45120 116500,46120 117560,47210 118790,48390 120160,49650 121610,50980 123100,52380 124580,53830 126010,55340 127340,56900 128530,58490 129530,60120 130290,61780 130780,63460 130930,65140 130710,66840 "/>
   <polygon class="fil0" points="0,149780 0,143180 107540,65710 108790,65800 109780,66060 110590,66420 111310,66840 112030,67250 112840,67620 113820,67870 115080,67970 "/>
   <polygon class="fil0" points="44760,200000 38650,200000 210110,96250 210110,100770 "/>
   <polygon class="fil0" points="43510,200000 37360,200000 201060,100770 201060,105300 "/>
   <polygon class="fil0" points="52830,200000 43510,200000 201060,105300 212370,105300 "/>
   <polygon class="fil0" points="57290,200000 50970,200000 210110,105300 210110,109820 "/>
   <polygon class="fil0" points="63720,200000 59930,200000 205580,114350 210110,114350 "/>
   <polygon class="fil0" points="156760,200000 111220,200000 200130,151040 201520,152360 202970,153610 204470,154800 206030,155910 207650,156950 209320,157910 211030,158800 212790,159600 214600,160310 216450,160940 218330,161480 220250,161930 222200,162280 224190,162530 226200,162690 228240,162740 "/>
   <polygon class="fil0" points="212370,87200 30810,198600 21760,198600 201060,87200 "/>
   <polygon class="fil0" points="0,145140 0,144220 104930,68780 105220,68580 105530,68420 105840,68270 106170,68160 106500,68070 106840,68010 107190,67970 107540,67970 "/>
   <polygon class="fil0" points="0,158940 0,158190 130710,66840 130680,66980 130640,67120 130600,67260 130560,67400 130520,67540 130480,67680 130440,67810 130400,67950 "/>
   <polygon class="fil0" points="0,157520 0,156580 125230,68780 125330,68840 125430,68900 125530,68960 125640,69020 125750,69090 125860,69150 125980,69210 126100,69280 "/>
   <polygon class="fil0" points="0,158590 0,157850 126440,69430 126540,69470 126630,69520 126730,69560 126830,69600 126920,69640 127020,69680 127120,69720 127220,69760 "/>
   <polygon class="fil0" points="32630,200000 29000,200000 29000,198600 210110,87200 210110,91720 "/>
   <polygon class="fil0" points="65620,200000 59930,200000 205580,114350 212370,114350 "/>
   <polygon class="fil0" points="59930,200000 53530,200000 205580,109820 205580,114350 "/>
   <polygon class="fil0" points="59930,200000 53530,200000 205580,109820 205580,114350 "/>
   <polygon class="fil0" points="208850,64770 28000,180660 28100,180590 28220,180550 28340,180540 28460,180540 28580,180570 28700,180630 28800,180710 209850,64830 209730,64740 209580,64670 209440,64630 209280,64620 209130,64640 208990,64690 "/>
   <polygon class="fil0" points="209850,64830 28800,180710 28840,180750 28880,180790 28910,180840 28940,180890 28960,180940 28980,181000 28990,181060 29000,181110 210110,65350 210100,65270 210080,65200 210060,65130 210030,65070 209990,65000 209950,64940 209910,64890 "/>
   <polygon class="fil0" points="201060,82670 21760,194980 21760,198600 201060,87200 "/>
   <polygon class="fil0" points="176180,41960 1860,162400 5480,162400 180700,41960 "/>
   <line class="fil0" x1="102950" y1="69760" x2="102950" y2= "69760" />
   <polygon class="fil0" points="180700,41960 5480,162400 5480,166020 180700,46480 "/>
   <polygon class="fil0" points="0,170950 0,170670 154330,65590 154340,65620 154360,65650 154370,65690 154390,65720 154400,65760 154410,65790 154430,65820 154440,65860 "/>
   <polygon class="fil0" points="43510,200000 37360,200000 201060,100770 201060,105300 "/>
   <polygon class="fil0" points="50970,200000 43510,200000 201060,105300 210110,105300 "/>
   <polygon class="fil0" points="28680,200000 26980,200000 27040,199970 207650,88910 206030,89950 204470,91060 202970,92250 201520,93500 200130,94830 "/>
   <polygon class="fil0" points="209340,62310 28390,178690 28110,178710 27830,178750 27570,178830 27320,178940 27080,179070 207700,62800 208000,62630 208320,62490 208650,62390 208990,62330 "/>
   <polygon class="fil0" points="201060,87200 21760,198600 21760,194980 201060,82670 "/>
   <path class="fil0" d="M28390 178690l0 0zm180950 -116380l0 0z"/>
   <polygon class="fil0" points="920,200000 0,200000 0,187110 160020,81930 164740,95510 "/>
   <polygon class="fil0" points="0,170370 0,166260 147390,64960 148080,64700 148790,64580 149500,64610 150190,64760 150830,65050 151410,65450 151910,65970 152300,66600 "/>
   <polygon class="fil0" points="1970,200000 1030,200000 164750,95580 164780,95660 164800,95740 164820,95820 164830,95910 164850,95990 164850,96080 164860,96160 164860,96250 "/>
   <polygon class="fil0" points="1030,200000 920,200000 164740,95510 164740,95510 164740,95520 164740,95530 164750,95540 164750,95550 164750,95560 164750,95570 164750,95580 "/>
   <polygon class="fil0" points="201060,87200 21760,198600 29000,198600 210110,87200 "/>
   <polygon class="fil0" points="33310,200000 31680,200000 209240,91530 207750,92490 206300,93520 204920,94610 203580,95770 202300,96990 "/>
   <polygon class="fil0" points="34980,200000 29000,200000 205580,91720 205580,96250 "/>
   <polygon class="fil0" points="34980,200000 29000,200000 205580,91720 205580,96250 "/>
   <polygon class="fil0" points="140,200000 0,200000 0,198400 155820,98510 156700,98340 157580,98150 158440,97910 159300,97650 160140,97350 160980,97010 161800,96650 162600,96250 "/>
   <polygon class="fil0" points="25970,200000 1970,200000 164860,96250 164860,114480 "/>
   <polygon class="fil0" points="0,186570 0,170370 152300,66600 157890,82670 "/>
   <polygon class="fil0" points="0,169450 0,168520 148250,67110 148500,66990 148770,66910 149050,66890 149330,66920 149600,67000 149860,67140 "/>
   <polygon class="fil0" points="60360,200000 33310,200000 202300,96990 201080,98270 199920,99610 198830,101000 197800,102440 196840,103930 195950,105470 195140,107050 194400,108680 193740,110340 193150,112050 192660,113790 192240,115560 191920,117360 191680,119190 191540,121050 191490,122930 "/>
   <polygon class="fil0" points="0,164010 0,163960 145560,63430 145960,63170 146380,62940 "/>
   <polygon class="fil0" points="53040,200000 51280,200000 187670,118870 189750,118870 "/>
   <polygon class="fil0" points="0,160750 0,160710 132570,68540 132570,68550 132570,68550 132570,68560 132570,68570 132570,68580 132570,68580 132570,68590 132560,68600 "/>
   <polygon class="fil0" points="0,187550 0,179650 141780,84940 156280,84940 "/>
   <polygon class="fil0" points="51280,200000 49350,200000 189750,116270 187670,118870 "/>
   <polygon class="fil0" points="0,160710 0,160680 132600,68490 132600,68490 132590,68500 132590,68510 132590,68510 132580,68520 132580,68530 132580,68530 132570,68540 "/>
   <polygon class="fil0" points="57750,200000 28680,200000 200130,94830 198810,96210 197560,97660 196370,99160 195260,100720 194220,102340 193260,104010 192380,105720 191570,107490 190860,109290 190230,111140 189690,113020 189240,114940 188890,116900 188630,118880 188480,120890 188430,122930 "/>
   <polygon class="fil0" points="70260,200000 63720,200000 210110,114350 210110,118870 "/>
   <polygon class="fil0" points="38840,200000 38620,200000 190810,107900 190600,108050 190410,108220 190240,108410 "/>
   <polygon class="fil0" points="50510,200000 42250,200000 192010,109820 182960,121130 "/>
   <polygon class="fil0" points="0,166660 0,160750 132560,68600 131940,70420 131200,72190 130330,73890 129340,75530 128250,77100 127040,78580 125730,79980 124320,81290 "/>
   <polygon class="fil0" points="33220,200000 140,200000 162600,96250 162600,121130 "/>
   <polygon class="fil0" points="33220,200000 140,200000 162600,96250 162600,121130 "/>
   <polygon class="fil0" points="0,158940 0,158820 130170,67970 130200,67970 130230,67970 130250,67960 130280,67960 130310,67960 130340,67960 130370,67950 130400,67950 "/>
   <polygon class="fil0" points="0,137040 0,129850 117120,43220 117650,43900 118200,44560 118770,45200 119350,45830 119960,46440 120580,47030 121220,47610 121880,48160 "/>
   <polygon class="fil0" points="0,129850 0,127080 113900,42380 114330,42180 114780,42080 115240,42060 115690,42130 116110,42290 116500,42520 116840,42830 117120,43220 "/>
   <polygon class="fil0" points="0,127080 0,127070 113650,42550 113770,42460 113900,42380 "/>
   <polygon class="fil0" points="0,191010 0,166660 124320,81290 128640,107190 "/>
   <polygon class="fil0" points="0,178160 0,165290 119970,82670 122230,96250 "/>
   <polygon class="fil0" points="5220,200000 1390,200000 128670,118870 133190,118870 "/>
   <polygon class="fil0" points="1390,200000 0,200000 0,191350 128670,107560 128670,118870 "/>
   <polygon class="fil0" points="28180,200000 20520,200000 151290,118870 160340,118870 "/>
   <polygon class="fil0" points="0,182430 0,177940 115100,100770 122980,100770 "/>
   <polygon class="fil0" points="0,177940 0,174690 112830,98510 112880,98970 113010,99390 113220,99770 113500,100110 113830,100390 114220,100590 114640,100730 115100,100770 "/>
   <polygon class="fil0" points="0,183470 0,183090 124140,100770 124600,100720 125020,100590 125410,100380 "/>
   <polygon class="fil0" points="0,186700 0,182430 122980,100770 123740,105300 "/>
   <polygon class="fil0" points="0,144030 0,143830 102950,69760 103050,69720 103150,69680 103250,69640 103350,69600 103440,69560 103540,69510 103640,69470 103730,69420 "/>
   <polygon class="fil0" points="0,140410 0,140270 99800,67950 99820,67960 99850,67960 99870,67960 99900,67960 99920,67960 99950,67970 99970,67970 100000,67970 "/>
   <polygon class="fil0" points="0,164430 0,158940 130400,67950 129770,69780 129010,71550 128110,73250 127080,74860 125930,76400 124660,77840 123280,79180 121790,80410 "/>
   <polygon class="fil0" points="0,156580 0,153460 120010,68780 120620,68430 121270,68170 121940,68020 122620,67970 123300,68020 123970,68170 124620,68430 125230,68780 "/>
   <line class="fil0" x1="107540" y1="65710" x2="107540" y2= "65710" />
   <polygon class="fil0" points="0,174690 0,173650 113830,96630 113500,96910 113220,97240 113010,97630 112880,98050 112830,98510 "/>
   <polygon class="fil0" points="0,190100 0,177250 103790,107560 126410,107560 "/>
   <polygon class="fil0" points="0,198440 0,190770 124140,109820 124140,118870 "/>
   <polygon class="fil0" points="46390,200000 38840,200000 190240,108410 181870,118870 "/>
   <polygon class="fil0" points="0,185790 0,180530 92470,118870 101520,118870 "/>
   <polygon class="fil0" points="0,165290 0,159500 110230,82670 119970,82670 "/>
   <polygon class="fil0" points="0,191200 0,103100 90210,32910 90210,132440 "/>
   <polygon class="fil0" points="0,156970 0,105100 90210,35170 221420,35170 38050,156970 "/>
   <polygon class="fil0" points="185220,41960 9090,162400 30810,162400 212370,41960 "/>
   <polygon class="fil0" points="185220,41960 9090,162400 9090,166020 185220,46480 "/>
   <polygon class="fil0" points="176180,41960 1860,162400 5480,162400 180700,41960 "/>
   <polygon class="fil0" points="0,159930 0,137040 121880,48160 122920,49110 123990,50100 125070,51140 126150,52210 127210,53320 128240,54460 129210,55630 130120,56840 130940,58080 131660,59340 132260,60620 132720,61930 133040,63270 133190,64620 133150,65990 132910,67380 "/>
   <polygon class="fil0" points="0,187110 0,170950 154440,65860 160020,81930 "/>
   <polygon class="fil0" points="140,200000 0,200000 0,186570 157890,82670 162600,96250 "/>
   <polygon class="fil0" points="0,197650 0,187550 156280,84940 159790,95040 "/>
   <polygon class="fil0" points="0,198400 0,192950 149030,96250 149830,96650 150650,97010 151490,97350 152330,97650 153190,97910 154060,98150 154930,98340 155820,98510 "/>
   <polygon class="fil0" points="0,155820 0,137990 118830,51490 119650,52250 120510,53040 121370,53860 122240,54700 123100,55550 123930,56430 124740,57320 125500,58220 126200,59130 126840,60050 127400,60960 127870,61880 128250,62790 128510,63690 128650,64590 128650,65470 "/>
   <polygon class="fil0" points="0,147450 0,145140 107540,67970 107890,67970 108230,68010 108570,68070 108910,68160 109230,68270 109550,68410 109850,68580 110140,68780 "/>
   <polygon class="fil0" points="180700,41960 5480,162400 5480,166020 180700,46480 "/>
   <polygon class="fil0" points="0,189710 0,189700 137720,99700 137720,99700 "/>
   <polygon class="fil0" points="0,196990 0,196990 151290,99700 151290,99700 "/>
   <line class="fil0" x1="130170" y1="67970" x2="130170" y2= "67970" />
   <polygon class="fil0" points="0,170670 0,164010 146380,62940 147500,62510 148650,62320 149790,62360 150900,62620 151940,63080 152880,63730 153680,64570 154330,65590 "/>
   <polygon class="fil0" points="0,169960 0,169450 149860,67140 149910,67180 149960,67220 150010,67270 150060,67310 150100,67360 150150,67410 150190,67460 150230,67510 "/>
   <polygon class="fil0" points="20520,200000 0,200000 0,196990 151290,99700 151290,118870 "/>
   <polygon class="fil0" points="0,183010 0,169960 150230,67510 154710,80410 "/>
   <polygon class="fil0" points="16700,200000 9050,200000 137720,118870 146770,118870 "/>
   <polygon class="fil0" points="106600,200000 105110,200000 214630,139230 216000,139090 217270,138700 218430,138070 "/>
   <polygon class="fil0" points="0,186570 0,176870 140170,82670 157890,82670 "/>
   <polygon class="fil0" points="9050,200000 0,200000 0,189710 137720,99700 137720,118870 "/>
   <polygon class="fil0" points="21700,200000 10170,200000 135460,121130 149030,121130 "/>
   <polygon class="fil0" points="10170,200000 0,200000 0,185580 135460,96250 135460,121130 "/>
   <polygon class="fil0" points="0,166260 0,166230 146890,65270 147130,65110 147390,64960 "/>
   <polygon class="fil0" points="0,190100 0,164490 121880,80410 126410,107560 "/>
   <polygon class="fil0" points="0,191350 0,191160 128630,107360 128630,107390 128640,107410 128650,107430 128650,107460 128660,107480 128660,107510 128670,107530 128670,107560 "/>
   <polygon class="fil0" points="0,191160 0,191010 128640,107190 128640,107210 128640,107230 128640,107250 128640,107270 128630,107300 128630,107320 128630,107340 128630,107360 "/>
   <polygon class="fil0" points="0,183090 0,177940 115100,100770 124140,100770 "/>
   <polygon class="fil0" points="2490,200000 0,200000 0,190100 126410,107560 126410,121130 "/>
   <polygon class="fil0" points="0,190770 0,180530 106050,109820 124140,109820 "/>
   <polygon class="fil0" points="84630,200000 0,200000 0,184520 92470,123390 219160,123390 "/>
   <polygon class="fil0" points="55220,200000 51290,200000 164860,132440 169390,132440 "/>
   <polygon class="fil0" points="51290,200000 44750,200000 164860,127920 164860,132440 "/>
   <polygon class="fil0" points="100740,200000 82890,200000 216690,123640 212090,137880 "/>
   <polygon class="fil0" points="39510,200000 33070,200000 151290,127920 151290,132440 "/>
   <polygon class="fil0" points="51290,200000 44750,200000 164860,127920 164860,132440 "/>
   <polygon class="fil0" points="39510,200000 33070,200000 151290,127920 151290,132440 "/>
   <polygon class="fil0" points="47370,200000 39510,200000 151290,132440 160340,132440 "/>
   <polygon class="fil0" points="31660,200000 25290,200000 142240,127920 142240,132440 "/>
   <polygon class="fil0" points="0,191200 0,181190 90210,121130 90210,132440 "/>
   <polygon class="fil0" points="35580,200000 31660,200000 142240,132440 146770,132440 "/>
   <polygon class="fil0" points="1630,200000 0,200000 0,191200 90210,132440 90350,133810 90750,135080 91370,136240 92200,137240 93200,138070 94360,138700 95630,139090 97000,139230 "/>
   <polygon class="fil0" points="31660,200000 25290,200000 142240,127920 142240,132440 "/>
   <polygon class="fil0" points="0,105100 0,103100 90210,32910 90210,35170 "/>
   <polygon class="fil0" points="47370,200000 39510,200000 151290,132440 160340,132440 "/>
   <polygon class="fil0" points="0,152420 0,149780 115080,67970 116330,67870 117310,67620 118120,67250 118850,66840 119570,66420 120380,66060 121360,65800 122620,65710 "/>
   <polygon class="fil0" points="0,103100 0,100190 93200,27280 92200,28110 91370,29110 90750,30260 90350,31540 90210,32910 "/>
   <polygon class="fil0" points="35580,200000 31660,200000 142240,132440 146770,132440 "/>
   <polygon class="fil0" points="0,158820 0,152420 122620,65710 123870,65800 124860,66060 125670,66420 126390,66840 127110,67250 127920,67620 128910,67870 130170,67970 "/>
   <polygon class="fil0" points="55220,200000 51290,200000 164860,132440 169390,132440 "/>
   <polygon class="fil0" points="0,160680 0,159930 132910,67380 132870,67520 132840,67660 132800,67800 132760,67940 132720,68080 132680,68220 132640,68350 132600,68490 "/>
   <polygon class="fil0" points="0,143180 0,140410 100000,67970 101250,67870 102240,67620 103050,67250 103770,66840 104490,66420 105300,66060 106290,65800 107540,65710 "/>
   <polygon class="fil0" points="106600,200000 105110,200000 214630,139230 216000,139090 217270,138700 218430,138070 "/>
   <polygon class="fil0" points="0,143830 0,143810 102870,69790 102880,69790 102890,69780 102900,69780 102910,69770 102920,69770 102930,69760 102940,69760 102950,69760 "/>
   <polygon class="fil0" points="105110,200000 1630,200000 97000,139230 214630,139230 "/>
   <polygon class="fil0" points="109630,200000 60360,200000 191490,122930 191540,124810 191680,126670 191920,128500 192240,130300 192660,132070 193150,133810 193740,135520 194400,137180 195140,138810 195950,140390 196840,141930 197800,143420 198830,144870 199920,146260 201080,147590 202300,148870 "/>
   <polygon class="fil0" points="105110,200000 1630,200000 97000,139230 214630,139230 "/>
   <polygon class="fil0" points="108710,200000 74730,200000 176180,141490 214630,141490 "/>
   <polygon class="fil0" points="0,158680 0,158590 127220,69760 127230,69760 127250,69770 127260,69770 127270,69780 127280,69780 127290,69790 127300,69790 127310,69800 "/>
   <polygon class="fil0" points="111220,200000 57750,200000 188430,122930 188480,124970 188630,126980 188890,128970 189240,130920 189690,132840 190230,134730 190860,136570 191570,138380 192380,140140 193260,141850 194220,143520 195260,145140 196370,146700 197560,148200 198810,149650 200130,151040 "/>
   <polygon class="fil0" points="0,144110 0,144030 103730,69420 103770,69400 103820,69380 103860,69370 103900,69350 103940,69330 103990,69310 104030,69290 104070,69270 "/>
   <polygon class="fil0" points="49450,200000 42750,200000 139980,141490 139980,146010 "/>
   <polygon class="fil0" points="0,162060 0,158680 127310,69800 126750,70990 126110,72150 125410,73260 124650,74340 123830,75360 122950,76340 122020,77270 121030,78150 "/>
   <polygon class="fil0" points="77690,200000 49450,200000 139980,146010 171650,146010 "/>
   <polygon class="fil0" points="0,157850 0,157520 126100,69280 126140,69300 126180,69310 126220,69330 126270,69350 126310,69370 126360,69390 126400,69410 126440,69430 "/>
   <polygon class="fil0" points="0,144220 0,144110 104070,69270 104180,69210 104300,69150 104410,69080 104520,69020 104630,68960 104730,68900 104840,68840 104930,68780 "/>
   <polygon class="fil0" points="0,164490 0,156390 108310,80410 121880,80410 "/>
   <polygon class="fil0" points="50820,200000 37450,200000 137720,139230 137720,148280 "/>
   <polygon class="fil0" points="0,137990 0,132600 115100,47930 115490,48340 115910,48760 116340,49190 116800,49630 117280,50070 117780,50530 118290,51010 118830,51490 "/>
   <polygon class="fil0" points="45410,200000 38750,200000 135460,141490 135460,146010 "/>
   <polygon class="fil0" points="0,174690 0,173650 113830,96630 113500,96910 113220,97240 113010,97630 112880,98050 112830,98510 "/>
   <polygon class="fil0" points="0,153460 0,147450 110140,68780 111310,69410 112530,69870 113790,70140 115080,70230 116360,70140 117620,69870 118850,69410 120010,68780 "/>
   <polygon class="fil0" points="0,177940 0,174690 112830,98510 112880,98970 113010,99390 113220,99770 113500,100110 113830,100380 114220,100590 114640,100720 115100,100770 "/>
   <polygon class="fil0" points="0,180530 0,108650 92470,37430 92470,118870 "/>
   <polygon class="fil0" points="0,189900 0,101540 87950,32910 87950,132440 "/>
   <polygon class="fil0" points="83240,200000 50820,200000 137720,148280 173910,148280 "/>
   <polygon class="fil0" points="110130,200000 45090,200000 120010,155060 191620,155060 "/>
   <polygon class="fil0" points="1630,200000 0,200000 0,191200 90210,132440 90350,133810 90750,135080 91370,136240 92200,137240 93200,138070 94360,138700 95630,139090 97000,139230 "/>
   <polygon class="fil0" points="38750,200000 4770,200000 97000,141490 135460,141490 "/>
   <polygon class="fil0" points="116290,200000 46120,200000 117360,157330 194270,157330 "/>
   <polygon class="fil0" points="45090,200000 42400,200000 122490,151790 121700,152440 121010,153210 120440,154090 120010,155060 "/>
   <polygon class="fil0" points="46120,200000 38450,200000 121350,149820 120010,150930 118900,152270 118070,153800 117540,155500 117360,157330 "/>
   <polygon class="fil0" points="44050,200000 34550,200000 120090,147950 118410,149330 117030,151000 115990,152930 115330,155050 115100,157330 "/>
   <polygon class="fil0" points="47500,200000 44050,200000 115100,157330 115100,159590 "/>
   <polygon class="fil0" points="4770,200000 0,200000 0,189900 87950,132440 88140,134260 88660,135960 89500,137500 90600,138840 91940,139940 93480,140780 95180,141300 97000,141490 "/>
   <polygon class="fil0" points="122150,200000 47500,200000 115100,159590 196530,159590 "/>
   <polygon class="fil0" points="0,101540 0,97660 91940,25410 90600,26510 89500,27850 88660,29390 88140,31080 87950,32910 "/>
   <polygon class="fil0" points="152450,200000 151190,200000 212940,167600 212830,167690 212720,167790 212610,167910 212500,168040 212380,168200 212270,168380 212150,168580 212020,168790 "/>
   <polygon class="fil0" points="151190,200000 151160,200000 213150,167480 213040,167540 212940,167600 "/>
   <polygon class="fil0" points="155610,200000 154110,200000 213780,168800 213910,168810 214040,168820 214170,168840 214300,168870 214430,168910 214560,168970 214690,169020 214820,169090 "/>
   <polygon class="fil0" points="154110,200000 153790,200000 213130,168960 213230,168910 213340,168870 213440,168840 213550,168820 213660,168810 213780,168800 "/>
   <polygon class="fil0" points="164210,200000 148950,200000 210740,167500 210740,175960 "/>
   <polygon class="fil0" points="165570,200000 164210,200000 210740,175960 212170,175960 "/>
   <line class="fil0" x1="210740" y1="175960" x2="210740" y2= "175960" />
   <polygon class="fil0" points="148580,200000 145490,200000 205110,168510 205370,168520 205620,168560 205860,168620 206080,168710 206300,168820 206510,168960 206700,169130 206890,169320 "/>
   <polygon class="fil0" points="142560,200000 142370,200000 203020,167840 202730,168030 202450,168250 "/>
   <polygon class="fil0" points="160200,200000 159200,200000 205110,176140 205380,176130 205650,176110 205920,176070 206170,176010 206430,175940 206670,175850 206910,175750 207150,175630 "/>
   <polygon class="fil0" points="157630,200000 157280,200000 206890,174160 206710,174350 206510,174510 206310,174650 206090,174770 "/>
   <polygon class="fil0" points="157280,200000 153490,200000 207600,171680 207590,172090 207560,172460 207500,172810 207420,173130 207320,173430 207200,173700 207060,173940 206890,174160 "/>
   <line class="fil0" x1="201140" y1="171730" x2="201140" y2= "171730" />
   <polygon class="fil0" points="159200,200000 154410,200000 202240,175000 202520,175270 202830,175500 203150,175700 203500,175860 203870,175980 204260,176070 204680,176120 205110,176140 "/>
   <polygon class="fil0" points="153490,200000 148580,200000 206890,169320 207050,169530 207200,169760 207320,170030 207420,170310 207500,170620 207560,170950 207590,171310 207600,171680 "/>
   <line class="fil0" x1="202610" y1="171730" x2="202610" y2= "171730" />
   <polygon class="fil0" points="145490,200000 144910,200000 203900,168820 204120,168710 204350,168620 204590,168560 204850,168520 205110,168510 "/>
   <polygon class="fil0" points="147490,200000 142560,200000 202450,168250 202140,168550 201880,168890 201650,169270 201470,169690 201330,170140 201220,170630 201160,171160 201140,171730 "/>
   <polygon class="fil0" points="154410,200000 147490,200000 201140,171730 201160,172250 201210,172730 201290,173190 201410,173620 201570,174010 201760,174370 201980,174700 202240,175000 "/>
   <polygon class="fil0" points="154440,200000 153650,200000 199380,176080 199500,176070 199620,176070 199750,176060 199890,176040 200020,176030 200160,176000 200310,175980 200460,175950 "/>
   <polygon class="fil0" points="153650,200000 152050,200000 198170,175830 198280,175890 198410,175940 198540,175980 198690,176010 198840,176040 199010,176060 199190,176070 199380,176080 "/>
   <line class="fil0" x1="200260" y1="174680" x2="200260" y2= "174680" />
   <polygon class="fil0" points="150300,200000 147090,200000 197390,173480 197390,173790 197400,174070 197420,174330 197440,174550 197460,174750 197490,174920 197520,175060 197570,175180 "/>
   <polygon class="fil0" points="141130,200000 139800,200000 198830,168610 200260,168610 "/>
   <polygon class="fil0" points="138450,200000 137470,200000 196330,168610 197390,168610 "/>
   <polygon class="fil0" points="136510,200000 132870,200000 197390,165400 197390,167500 "/>
   <polygon class="fil0" points="137470,200000 135530,200000 196330,167500 196330,168610 "/>
   <polygon class="fil0" points="132870,200000 132720,200000 198830,164540 197390,165400 "/>
   <polygon class="fil0" points="147090,200000 138450,200000 197390,168610 197390,173480 "/>
   <polygon class="fil0" points="152050,200000 150300,200000 197570,175180 197610,175280 197670,175370 197730,175460 197800,175540 197880,175620 197970,175700 198060,175770 198170,175830 "/>
   <polygon class="fil0" points="148220,200000 146060,200000 193600,174900 193620,175050 193640,175200 193670,175340 193700,175470 193740,175600 193780,175730 193830,175840 193880,175960 "/>
   <line class="fil0" x1="193600" y1="174900" x2="193600" y2= "174900" />
   <polygon class="fil0" points="144380,200000 143520,200000 193250,173670 193170,173820 193080,173970 192970,174100 192860,174230 192740,174350 192600,174460 192460,174560 192300,174650 "/>
   <polygon class="fil0" points="138290,200000 137650,200000 193490,170220 193490,170250 193490,170280 193490,170310 193490,170360 193490,170410 193480,170460 193480,170530 193480,170600 "/>
   <polygon class="fil0" points="137650,200000 135100,200000 193080,168990 193180,169090 193260,169200 193330,169330 193390,169480 193430,169640 193460,169820 193480,170010 193490,170220 "/>
   <polygon class="fil0" points="136530,200000 135790,200000 188610,171770 188500,171850 188390,171940 188290,172030 188200,172130 188100,172240 188020,172350 187940,172470 187870,172590 "/>
   <polygon class="fil0" points="135790,200000 135750,200000 188850,171630 188730,171700 188610,171770 "/>
   <polygon class="fil0" points="140280,200000 139030,200000 191140,172260 191520,172200 191870,172140 192200,172080 192510,172010 192790,171940 193050,171870 193280,171800 193490,171720 "/>
   <polygon class="fil0" points="138270,200000 136530,200000 187870,172590 187800,172720 187740,172860 187690,172990 187650,173130 187620,173280 187600,173420 187590,173570 187580,173730 "/>
   <polygon class="fil0" points="135100,200000 132730,200000 191450,168510 191710,168520 191950,168540 192190,168580 192400,168630 192590,168700 192770,168780 192940,168880 193080,168990 "/>
   <polygon class="fil0" points="132730,200000 131930,200000 190080,168780 190220,168710 190380,168650 190560,168600 190760,168560 190970,168530 191200,168510 191450,168510 "/>
   <polygon class="fil0" points="133480,200000 131820,200000 187830,169930 189230,170120 "/>
   <polygon class="fil0" points="131820,200000 129870,200000 188460,168470 188350,168610 188260,168770 188170,168930 188080,169110 188010,169300 187940,169500 187880,169710 187830,169930 "/>
   <polygon class="fil0" points="129870,200000 129500,200000 189340,167780 189160,167880 189000,167980 188840,168090 188700,168210 188580,168330 188460,168470 "/>
   <polygon class="fil0" points="149650,200000 148220,200000 193880,175960 195380,175960 "/>
   <polygon class="fil0" points="146380,200000 146330,200000 192070,175860 192250,175790 192440,175700 "/>
   <polygon class="fil0" points="146330,200000 145320,200000 190480,176140 190690,176140 190900,176120 191100,176100 191300,176070 191500,176030 191690,175980 191880,175930 192070,175860 "/>
   <polygon class="fil0" points="139030,200000 138340,200000 189880,172540 189980,172500 190100,172470 190230,172430 190380,172390 190550,172360 190730,172320 190920,172290 191140,172260 "/>
   <polygon class="fil0" points="138340,200000 138330,200000 189800,172580 189880,172540 "/>
   <polygon class="fil0" points="143520,200000 141200,200000 193480,172240 193480,172470 193470,172690 193450,172880 193420,173070 193390,173240 193350,173400 193300,173540 193250,173670 "/>
   <polygon class="fil0" points="145320,200000 142070,200000 188330,175460 188530,175620 188750,175760 188990,175880 189250,175970 189520,176050 189820,176100 190140,176130 190480,176140 "/>
   <polygon class="fil0" points="141200,200000 140290,200000 193490,171720 193480,172240 "/>
   <polygon class="fil0" points="140290,200000 140280,200000 193490,171720 193490,171720 "/>
   <polygon class="fil0" points="142070,200000 138270,200000 187580,173730 187590,173980 187630,174230 187690,174460 187770,174690 187880,174900 188010,175100 188160,175290 188330,175460 "/>
   <polygon class="fil0" points="126190,200000 124990,200000 184830,167600 184720,167690 184610,167790 184500,167910 184390,168040 184270,168200 184160,168380 184040,168580 183910,168790 "/>
   <polygon class="fil0" points="124990,200000 124970,200000 185040,167480 184930,167540 184830,167600 "/>
   <polygon class="fil0" points="129330,200000 127850,200000 185670,168800 185800,168810 185930,168820 186060,168840 186190,168870 186320,168910 186450,168970 186590,169020 186720,169090 "/>
   <polygon class="fil0" points="127850,200000 127510,200000 185020,168960 185120,168910 185230,168870 185330,168840 185440,168820 185560,168810 185670,168800 "/>
   <polygon class="fil0" points="137540,200000 122760,200000 182630,167500 182630,175960 "/>
   <polygon class="fil0" points="138900,200000 137540,200000 182630,175960 184060,175960 "/>
   <line class="fil0" x1="182630" y1="175960" x2="182630" y2= "175960" />
   <polygon class="fil0" points="136380,200000 135580,200000 180340,176080 180460,176070 180590,176070 180710,176060 180850,176040 180980,176030 181130,176000 181270,175980 181420,175950 "/>
   <polygon class="fil0" points="135580,200000 134000,200000 179130,175830 179240,175890 179370,175940 179500,175980 179650,176010 179810,176040 179970,176060 180150,176070 180340,176080 "/>
   <line class="fil0" x1="181230" y1="174680" x2="181230" y2= "174680" />
   <polygon class="fil0" points="132270,200000 129130,200000 178360,173480 178360,173790 178370,174070 178380,174330 178400,174550 178420,174750 178450,174920 178490,175060 178530,175180 "/>
   <polygon class="fil0" points="123350,200000 122010,200000 179790,168610 181230,168610 "/>
   <polygon class="fil0" points="120670,200000 119680,200000 177290,168610 178360,168610 "/>
   <polygon class="fil0" points="118780,200000 115210,200000 178360,165400 178360,167500 "/>
   <polygon class="fil0" points="119680,200000 117790,200000 177290,167500 177290,168610 "/>
   <polygon class="fil0" points="115210,200000 115080,200000 179790,164540 178360,165400 "/>
   <polygon class="fil0" points="129130,200000 120670,200000 178360,168610 178360,173480 "/>
   <polygon class="fil0" points="134000,200000 132270,200000 178530,175180 178570,175280 178630,175370 178690,175460 178770,175540 178840,175620 178930,175700 179030,175770 179130,175830 "/>
   <polygon class="fil0" points="127400,200000 127350,200000 174460,174560 174340,174660 174190,174740 "/>
   <polygon class="fil0" points="127350,200000 126150,200000 174940,173620 174940,173760 174910,173890 174880,174010 174820,174130 174760,174250 174670,174360 174580,174460 174460,174560 "/>
   <polygon class="fil0" points="126150,200000 124420,200000 174520,172860 174610,172930 174700,173010 174780,173100 174830,173190 174880,173290 174910,173390 174940,173500 174940,173620 "/>
   <polygon class="fil0" points="124420,200000 122190,200000 173050,172370 173330,172440 173580,172510 173800,172580 174000,172640 174170,172700 174310,172750 174430,172810 174520,172860 "/>
   <polygon class="fil0" points="120440,200000 119450,200000 174680,169900 176090,169700 "/>
   <polygon class="fil0" points="119450,200000 117160,200000 174130,168860 174240,168960 174340,169060 174420,169180 174500,169300 174560,169440 174610,169580 174650,169730 174680,169900 "/>
   <polygon class="fil0" points="117160,200000 115330,200000 172840,168490 173050,168500 173240,168510 173410,168540 173580,168580 173740,168630 173880,168700 174010,168770 174130,168860 "/>
   <polygon class="fil0" points="114470,200000 112930,200000 169880,168700 169820,168830 169770,168950 169730,169080 169690,169200 169660,169340 169640,169470 169630,169610 169630,169750 "/>
   <polygon class="fil0" points="112930,200000 112230,200000 170590,167900 170480,167980 170380,168070 170280,168160 170190,168260 170110,168370 170030,168470 169950,168590 169880,168700 "/>
   <polygon class="fil0" points="112230,200000 112190,200000 170770,167780 170680,167840 170590,167900 "/>
   <polygon class="fil0" points="122190,200000 118950,200000 170860,171680 171030,171760 171230,171840 171460,171920 171710,172000 172000,172090 172320,172180 172670,172270 173050,172370 "/>
   <polygon class="fil0" points="118950,200000 116700,200000 169940,170880 170030,171000 170120,171120 170220,171230 170330,171340 170450,171430 170580,171520 170710,171610 170860,171680 "/>
   <polygon class="fil0" points="115330,200000 114540,200000 171550,168740 171680,168670 171830,168620 172000,168570 172180,168540 172380,168510 172600,168490 172840,168490 "/>
   <polygon class="fil0" points="116700,200000 114470,200000 169630,169750 169630,169900 169650,170050 169670,170200 169710,170340 169750,170480 169810,170620 169870,170750 169940,170880 "/>
   <polygon class="fil0" points="129840,200000 129820,200000 174790,175800 174980,175710 "/>
   <polygon class="fil0" points="129820,200000 128730,200000 173000,176140 173240,176140 173480,176120 173720,176090 173950,176050 174170,176010 174380,175950 174590,175880 174790,175800 "/>
   <polygon class="fil0" points="128730,200000 125150,200000 170490,175460 170710,175620 170970,175760 171240,175870 171550,175970 171870,176050 172220,176100 172600,176130 173000,176140 "/>
   <polygon class="fil0" points="125150,200000 120580,200000 169380,173430 169450,173760 169540,174060 169650,174350 169780,174610 169930,174850 170090,175070 170280,175280 170490,175460 "/>
   <line class="fil0" x1="169380" y1="173430" x2="169380" y2= "173430" />
   <polygon class="fil0" points="122160,200000 119970,200000 166410,174700 166410,175960 "/>
   <polygon class="fil0" points="120750,200000 119930,200000 163730,176140 164140,176120 164530,176050 164900,175940 165250,175780 "/>
   <polygon class="fil0" points="165090,174650 118630,200000 165230,174570 "/>
   <polygon class="fil0" points="118630,200000 117830,200000 166030,173670 165970,173810 165890,173940 165810,174070 165710,174180 165610,174290 165490,174390 165360,174490 165230,174570 "/>
   <polygon class="fil0" points="117830,200000 115210,200000 166260,172020 166260,172290 166250,172530 166230,172760 166200,172980 166170,173180 166130,173360 166080,173520 166030,173670 "/>
   <polygon class="fil0" points="115210,200000 107510,200000 166260,167500 166260,172020 "/>
   <polygon class="fil0" points="111320,200000 102460,200000 160850,167500 160850,172730 "/>
   <polygon class="fil0" points="119930,200000 118120,200000 162340,175860 162500,175920 162670,175980 162840,176030 163010,176070 163190,176100 163360,176120 163550,176140 163730,176140 "/>
   <polygon class="fil0" points="118120,200000 115950,200000 161370,175130 161460,175240 161550,175340 161660,175440 161770,175530 161900,175620 162030,175700 162180,175780 162340,175860 "/>
   <polygon class="fil0" points="115950,200000 113710,200000 160930,174070 160970,174230 161010,174370 161060,174510 161110,174650 161170,174780 161230,174900 161300,175020 161370,175130 "/>
   <polygon class="fil0" points="113710,200000 111320,200000 160850,172730 160850,172960 160850,173160 160860,173350 160870,173530 160880,173690 160900,173830 160910,173960 160930,174070 "/>
   <polygon class="fil0" points="123380,200000 122160,200000 166410,175960 167700,175960 "/>
   <line class="fil0" x1="166410" y1="175960" x2="166410" y2= "175960" />
   <polygon class="fil0" points="113450,200000 93760,200000 157220,164280 157220,175960 "/>
   <polygon class="fil0" points="114810,200000 113450,200000 157220,175960 158660,175960 "/>
   <polygon class="fil0" points="110010,200000 90400,200000 153600,164280 153600,175960 "/>
   <polygon class="fil0" points="111370,200000 110010,200000 153600,175960 155040,175960 "/>
   <polygon class="fil0" points="106160,200000 86650,200000 149540,164280 149540,175960 "/>
   <polygon class="fil0" points="107630,200000 106160,200000 149540,175960 151090,175960 "/>
   <polygon class="fil0" points="97640,200000 96500,200000 139040,176140 139400,176130 139750,176100 140070,176040 140380,175960 140680,175860 140950,175740 141210,175590 "/>
   <polygon class="fil0" points="89870,200000 86720,200000 140740,169320 140850,169460 140950,169620 141030,169800 141100,169990 141170,170200 141220,170420 141260,170660 141290,170920 "/>
   <polygon class="fil0" points="93250,200000 87320,200000 136490,172100 142790,172100 "/>
   <polygon class="fil0" points="86720,200000 83700,200000 138970,168490 139240,168500 139490,168540 139730,168610 139960,168700 140180,168810 140380,168960 140570,169130 140740,169320 "/>
   <polygon class="fil0" points="81040,200000 80720,200000 137030,167780 136710,167980 136400,168220 136120,168490 "/>
   <polygon class="fil0" points="95130,200000 95090,200000 140390,174550 140240,174650 140090,174730 "/>
   <polygon class="fil0" points="95090,200000 93690,200000 141270,173220 141180,173440 141090,173650 140990,173840 140880,174010 140770,174170 140650,174310 140520,174440 140390,174550 "/>
   <line class="fil0" x1="141270" y1="173220" x2="141270" y2= "173220" />
   <polygon class="fil0" points="96500,200000 91800,200000 136110,175000 136390,175270 136700,175500 137030,175700 137380,175860 137760,175980 138160,176070 138590,176120 139040,176140 "/>
   <polygon class="fil0" points="91800,200000 85450,200000 135020,171800 135040,172300 135090,172770 135180,173220 135290,173630 135450,174010 135630,174370 135850,174700 136110,175000 "/>
   <polygon class="fil0" points="83700,200000 83090,200000 137860,168750 138070,168660 138280,168580 138500,168530 138730,168500 138970,168490 "/>
   <polygon class="fil0" points="85450,200000 81040,200000 136120,168490 135860,168800 135640,169140 135450,169510 135290,169910 135180,170340 135090,170800 135040,171280 135020,171800 "/>
   <line class="fil0" x1="136570" y1="170920" x2="136570" y2= "170920" />
   <polygon class="fil0" points="86110,200000 82740,200000 132280,171720 132270,172110 132240,172480 132180,172820 132110,173140 132010,173430 131890,173690 131750,173940 131590,174150 "/>
   <polygon class="fil0" points="73240,200000 72830,200000 128590,167760 128330,167950 128080,168180 127840,168450 "/>
   <polygon class="fil0" points="86430,200000 86110,200000 131590,174150 131420,174340 131240,174510 131050,174650 130850,174760 "/>
   <polygon class="fil0" points="88860,200000 88010,200000 130090,176140 130460,176120 130820,176070 131160,175970 131490,175840 131800,175680 "/>
   <polygon class="fil0" points="88010,200000 83700,200000 127740,174890 127970,175190 128210,175440 128470,175650 128760,175830 129060,175960 129390,176060 129730,176120 130090,176140 "/>
   <polygon class="fil0" points="82740,200000 78120,200000 131620,169280 131780,169490 131910,169730 132020,169990 132110,170280 132190,170600 132240,170950 132270,171320 132280,171720 "/>
   <polygon class="fil0" points="85480,200000 84210,200000 126410,175960 127740,175960 "/>
   <line class="fil0" x1="127740" y1="175960" x2="127740" y2= "175960" />
   <polygon class="fil0" points="78120,200000 75360,200000 130040,168490 130270,168500 130490,168540 130700,168600 130900,168690 131090,168800 131280,168930 131460,169090 131620,169280 "/>
   <polygon class="fil0" points="75360,200000 74870,200000 129160,168690 129370,168610 129580,168540 129810,168500 130040,168490 "/>
   <line class="fil0" x1="127730" y1="171670" x2="127730" y2= "171670" />
   <polygon class="fil0" points="84210,200000 65240,200000 126410,164280 126410,175960 "/>
   <polygon class="fil0" points="69700,200000 66750,200000 120780,168510 121040,168520 121290,168560 121530,168620 121760,168710 121970,168820 122180,168960 122370,169130 122560,169320 "/>
   <polygon class="fil0" points="63860,200000 63740,200000 118690,167840 118400,168030 118120,168250 "/>
   <polygon class="fil0" points="80260,200000 79180,200000 120780,176140 121060,176130 121320,176110 121590,176070 121850,176010 122100,175940 122350,175850 122590,175750 122820,175630 "/>
   <polygon class="fil0" points="77850,200000 77590,200000 122560,174160 122380,174350 122180,174510 121980,174650 "/>
   <polygon class="fil0" points="77590,200000 74210,200000 123270,171680 123260,172090 123230,172460 123170,172810 123100,173130 123000,173430 122870,173700 122730,173940 122560,174160 "/>
   <line class="fil0" x1="116810" y1="171730" x2="116810" y2= "171730" />
   <polygon class="fil0" points="79180,200000 74580,200000 117910,175000 118190,175270 118500,175500 118830,175700 119170,175860 119540,175980 119940,176070 120350,176120 120780,176140 "/>
   <polygon class="fil0" points="74210,200000 69700,200000 122560,169320 122730,169530 122870,169760 122990,170030 123090,170310 123170,170620 123230,170950 123260,171310 123270,171680 "/>
   <line class="fil0" x1="118280" y1="171730" x2="118280" y2= "171730" />
   <polygon class="fil0" points="66750,200000 66120,200000 119580,168820 119790,168710 120020,168620 120260,168560 120520,168520 120780,168510 "/>
   <polygon class="fil0" points="68210,200000 63860,200000 118120,168250 117810,168550 117550,168890 117320,169270 117140,169690 117000,170140 116900,170630 116830,171160 116810,171730 "/>
   <polygon class="fil0" points="74580,200000 68210,200000 116810,171730 116830,172250 116880,172730 116970,173190 117090,173620 117240,174010 117430,174370 117650,174700 117910,175000 "/>
   <polygon class="fil0" points="72200,200000 70450,200000 113740,174890 113740,175960 "/>
   <polygon class="fil0" points="71040,200000 70250,200000 111370,176140 111750,176120 112110,176060 112440,175960 112750,175830 "/>
   <polygon class="fil0" points="68990,200000 68730,200000 113120,174200 112950,174380 112770,174540 112580,174670 "/>
   <polygon class="fil0" points="68730,200000 65570,200000 113780,171860 113770,172240 113730,172600 113680,172930 113610,173230 113520,173510 113400,173760 113270,173990 113120,174200 "/>
   <polygon class="fil0" points="60030,200000 53420,200000 113640,164280 113640,168480 "/>
   <polygon class="fil0" points="60860,200000 58030,200000 111450,168510 111690,168520 111920,168560 112140,168620 112360,168710 112560,168820 112750,168960 112930,169130 113100,169320 "/>
   <polygon class="fil0" points="56430,200000 55120,200000 109430,167860 109220,168010 109030,168170 108850,168340 108690,168530 108540,168740 108400,168960 108270,169190 108160,169440 "/>
   <polygon class="fil0" points="55120,200000 55120,200000 109640,167730 109430,167860 "/>
   <polygon class="fil0" points="65570,200000 60860,200000 113100,169320 113260,169530 113400,169780 113510,170050 113610,170360 113680,170690 113730,171050 113770,171440 113780,171860 "/>
   <polygon class="fil0" points="73470,200000 72200,200000 113740,175960 115080,175960 "/>
   <line class="fil0" x1="113740" y1="175960" x2="113740" y2= "175960" />
   <polygon class="fil0" points="70250,200000 67580,200000 109520,175580 109730,175710 109950,175830 110170,175920 110410,176000 110640,176060 110880,176110 111120,176130 111370,176140 "/>
   <polygon class="fil0" points="67580,200000 63820,200000 108200,174030 108330,174270 108460,174500 108610,174720 108770,174920 108940,175110 109120,175280 109310,175440 109520,175580 "/>
   <line class="fil0" x1="109210" y1="171740" x2="109210" y2= "171740" />
   <polygon class="fil0" points="58030,200000 57510,200000 110380,168810 110570,168700 110780,168620 110990,168560 111210,168520 111450,168510 "/>
   <polygon class="fil0" points="59690,200000 56430,200000 108160,169440 108060,169700 107980,169970 107900,170250 107840,170530 107800,170820 107760,171120 107750,171420 107740,171740 "/>
   <polygon class="fil0" points="63820,200000 59690,200000 107740,171740 107750,172060 107770,172370 107800,172670 107850,172960 107920,173240 108000,173510 108090,173780 108200,174030 "/>
   <polygon class="fil0" points="54930,200000 48690,200000 102420,167930 103640,171160 "/>
   <polygon class="fil0" points="66020,200000 64350,200000 105470,175960 107230,175960 "/>
   <polygon class="fil0" points="64350,200000 57380,200000 104120,172420 105470,175960 "/>
   <polygon class="fil0" points="57380,200000 52750,200000 99200,172420 104120,172420 "/>
   <polygon class="fil0" points="57200,200000 55650,200000 96290,175960 97940,175960 "/>
   <polygon class="fil0" points="48690,200000 44120,200000 101580,165490 101660,165740 101740,166000 101830,166280 101930,166580 102040,166890 102160,167220 102290,167570 102420,167930 "/>
   <line class="fil0" x1="99660" y1="171160" x2="99660" y2= "171160" />
   <polygon class="fil0" points="55650,200000 41510,200000 100770,164280 96290,175960 "/>
  </g>
  <polygon class="fil1" points="124290,200000 123830,200000 123380,200000 123350,200000 122760,200000 122260,200000 122190,200000 122160,200000 122150,200000 122010,200000 120750,200000 120670,200000 120580,200000 120440,200000 119970,200000 119930,200000 119680,200000 119450,200000 118950,200000 118780,200000 118630,200000 118120,200000 117830,200000 117790,200000 117270,200000 117160,200000 116700,200000 116290,200000 115950,200000 115330,200000 115210,200000 115210,200000 115080,200000 114810,200000 114540,200000 114470,200000 113710,200000 113450,200000 112930,200000 112230,200000 112190,200000 111370,200000 111320,200000 111220,200000 110690,200000 110130,200000 110010,200000 109630,200000 109100,200000 108710,200000 107630,200000 107510,200000 106600,200000 106160,200000 105470,200000 105110,200000 102910,200000 102530,200000 102460,200000 100740,200000 98420,200000 97640,200000 97180,200000 96500,200000 95700,200000 95700,200000 95410,200000 95130,200000 95090,200000 93760,200000 93690,200000 93250,200000 92640,200000 91800,200000 91450,200000 90400,200000 89870,200000 88970,200000 88860,200000 88010,200000 87320,200000 86720,200000 86650,200000 86430,200000 86110,200000 85480,200000 85450,200000 84630,200000 84210,200000 83700,200000 83700,200000 83240,200000 83090,200000 82890,200000 82740,200000 81840,200000 81040,200000 80720,200000 80260,200000 79180,200000 78120,200000 78030,200000 77910,200000 77850,200000 77690,200000 77610,200000 77590,200000 76830,200000 75720,200000 75490,200000 75360,200000 74870,200000 74730,200000 74580,200000 74400,200000 74210,200000 74080,200000 73470,200000 73240,200000 72830,200000 72280,200000 72200,200000 71040,200000 70450,200000 70260,200000 70250,200000 69700,200000 68990,200000 68730,200000 68210,200000 67580,200000 67250,200000 67180,200000 66750,200000 66120,200000 66020,200000 65620,200000 65570,200000 65240,200000 64350,200000 63860,200000 63820,200000 63740,200000 63720,200000 60860,200000 60360,200000 60030,200000 59930,200000 59690,200000 58030,200000 57750,200000 57530,200000 57510,200000 57380,200000 57290,200000 57200,200000 56430,200000 55650,200000 55220,200000 55120,200000 55120,200000 54930,200000 53530,200000 53530,200000 53420,200000 53040,200000 52830,200000 52750,200000 51290,200000 51280,200000 50970,200000 50820,200000 50510,200000 49450,200000 49350,200000 48690,200000 47500,200000 47370,200000 46390,200000 46120,200000 45510,200000 45410,200000 45090,200000 44760,200000 44750,200000 44120,200000 44050,200000 43510,200000 43510,200000 42750,200000 42400,200000 42250,200000 41510,200000 40480,200000 39510,200000 38840,200000 38750,200000 38650,200000 38620,200000 38450,200000 37450,200000 37360,200000 36860,200000 35580,200000 34980,200000 34550,200000 33310,200000 33220,200000 33070,200000 32630,200000 32620,200000 31680,200000 31660,200000 30810,200000 29490,200000 29330,200000 29000,200000 29000,200000 28680,200000 28180,200000 26980,200000 25970,200000 25290,200000 21700,200000 20520,200000 16700,200000 10170,200000 9050,200000 5220,200000 4770,200000 2490,200000 1970,200000 1630,200000 1390,200000 1030,200000 920,200000 140,200000 0,200000 0,198440 0,198400 0,197650 0,196990 0,196990 0,192950 0,191350 0,191200 0,191160 0,191010 0,190770 0,190100 0,189900 0,189710 0,189700 0,187550 0,187110 0,186700 0,186570 0,186570 0,185790 0,185580 0,184520 0,183470 0,183090 0,183010 0,182430 0,181190 0,180530 0,180530 0,179650 0,178160 0,177940 0,177250 0,176870 0,174690 0,173650 0,170950 0,170670 0,170370 0,169960 0,169450 0,168520 0,166660 0,166260 0,166230 0,165290 0,164490 0,164430 0,164010 0,163960 0,162060 0,160750 0,160710 0,160680 0,159930 0,159500 0,158940 0,158820 0,158680 0,158590 0,158190 0,157850 0,157520 0,156970 0,156580 0,156390 0,155820 0,153460 0,152420 0,151540 0,149780 0,147450 0,145140 0,144220 0,144110 0,144030 0,143830 0,143810 0,143180 0,140410 0,140270 0,137990 0,137040 0,132600 0,129850 0,129420 0,127080 0,127070 0,108650 0,105100 0,103760 0,103100 0,102720 0,101540 0,100190 0,97660 91940,25410 90600,26510 89500,27850 88660,29390 88140,31080 88120,31260 93200,27280 92200,28110 91370,29110 90750,30260 90350,31540 90260,32430 94470,29160 95240,28740 96090,28470 97000,28380 214630,28380 215540,28470 216390,28740 217160,29160 217830,29710 218380,30380 218800,31150 219060,32000 219160,32910 215770,35170 221420,35170 211200,41960 212370,41960 212370,55530 162160,88090 162580,89280 206480,60890 207000,60600 207550,60360 208130,60190 208730,60090 209340,60050 210400,60160 211400,60470 212300,60960 213080,61600 213730,62390 214220,63280 214520,64280 214630,65340 214630,87180 215130,86990 216900,86380 218710,85870 220560,85440 222440,85100 224350,84850 226280,84700 228240,84650 230200,84700 232130,84850 234040,85100 235920,85440 237770,85870 239580,86380 241350,86990 243090,87680 244780,88450 246430,89300 248030,90220 249590,91220 251090,92290 252540,93430 253930,94640 255260,95910 256530,97240 257740,98630 258880,100080 259950,101580 260950,103140 261870,104740 262720,106390 263490,108080 264180,109820 264790,111590 265310,113400 265740,115250 266070,117130 266320,119040 266470,120970 266520,122930 266470,124890 266320,126820 266070,128730 265740,130610 265310,132460 264790,134270 264180,136040 263490,137780 262720,139470 261870,141120 260950,142730 259950,144280 258880,145780 257740,147230 256530,148620 255260,149950 253930,151220 252540,152430 251090,153570 249590,154640 248030,155640 246430,156570 235990,161970 236230,161930 238150,161480 240030,160940 241880,160310 243680,159600 245450,158800 247160,157910 165580,200000 165570,200000 164210,200000 162540,200000 160200,200000 159510,200000 159200,200000 157630,200000 157280,200000 156760,200000 155610,200000 154440,200000 154410,200000 154110,200000 153790,200000 153650,200000 153490,200000 152720,200000 152450,200000 152050,200000 151370,200000 151190,200000 151160,200000 150300,200000 149960,200000 149650,200000 148950,200000 148580,200000 148220,200000 147490,200000 147090,200000 146380,200000 146330,200000 146060,200000 145490,200000 145320,200000 144910,200000 144380,200000 143520,200000 142560,200000 142370,200000 142070,200000 141200,200000 141130,200000 140290,200000 140280,200000 139840,200000 139800,200000 139030,200000 138900,200000 138450,200000 138340,200000 138330,200000 138290,200000 138270,200000 137650,200000 137540,200000 137470,200000 136530,200000 136510,200000 136380,200000 135790,200000 135750,200000 135580,200000 135530,200000 135100,200000 134000,200000 133480,200000 132870,200000 132730,200000 132720,200000 132270,200000 131930,200000 131820,200000 129870,200000 129840,200000 129820,200000 129500,200000 129330,200000 129130,200000 128730,200000 128550,200000 127850,200000 127510,200000 127400,200000 127350,200000 126190,200000 126150,200000 125150,200000 124990,200000 124970,200000 124420,200000 "/>
  <g id="_2884929387248">
   <g>
    <path class="fil2" d="M96290 175960l4480 -11680 1710 0 4750 11680 -1760 0 -1350 -3540 -4920 0 -1260 3540 -1650 0zm3370 -4790l3980 0 -1220 -3240c-370,-990 -640,-1800 -840,-2440 -160,760 -370,1510 -640,2250l-1280 3430 0 0z"/>
    <path id="_1" class="fil2" d="M113740 175960l0 -1070c-530,840 -1320,1250 -2370,1250 -670,0 -1290,-180 -1850,-550 -570,-380 -1000,-890 -1320,-1560 -310,-670 -460,-1430 -460,-2290 0,-850 140,-1610 420,-2300 280,-680 710,-1210 1270,-1580 560,-360 1190,-540 1880,-540 510,0 970,100 1360,320 400,220 730,500 970,840l0 -4200 1440 0 0 11680 -1340 0 0 0zm-4530 -4220c0,1080 230,1890 680,2430 460,530 1000,800 1620,800 630,0 1170,-260 1610,-770 430,-510 660,-1290 660,-2340 0,-1150 -230,-2000 -680,-2540 -440,-540 -990,-810 -1650,-810 -640,0 -1170,250 -1600,770 -430,520 -640,1340 -640,2460l0 0z"/>
    <path id="_2" class="fil2" d="M116810 171730c0,-1570 440,-2720 1310,-3480 720,-620 1610,-930 2660,-930 1160,0 2110,380 2850,1140 740,760 1110,1810 1110,3150 0,1090 -160,1940 -490,2570 -330,620 -800,1100 -1430,1450 -620,340 -1300,510 -2040,510 -1180,0 -2140,-370 -2870,-1130 -730,-760 -1100,-1850 -1100,-3280l0 0zm1470 0c0,1080 230,1890 710,2430 480,540 1070,810 1790,810 710,0 1310,-270 1780,-810 480,-550 710,-1370 710,-2470 0,-1050 -240,-1840 -710,-2370 -480,-540 -1070,-810 -1780,-810 -720,0 -1310,260 -1790,800 -480,540 -710,1340 -710,2420l0 0z"/>
    <path id="_3" class="fil2" d="M127740 175960l-1330 0 0 -11680 1430 0 0 4170c610,-760 1380,-1130 2320,-1130 520,0 1010,100 1480,310 470,210 850,500 1150,880 290,380 530,840 700,1380 170,530 260,1100 260,1710 0,1450 -360,2570 -1080,3360 -720,790 -1580,1180 -2580,1180 -990,0 -1780,-420 -2350,-1250l0 1070 0 0zm-10 -4290c0,1010 140,1740 410,2190 450,740 1060,1110 1830,1110 630,0 1170,-270 1620,-820 460,-540 690,-1350 690,-2430 0,-1100 -220,-1920 -660,-2440 -430,-520 -960,-790 -1580,-790 -630,0 -1180,270 -1630,820 -450,540 -680,1330 -680,2360l0 0z"/>
    <path id="_4" class="fil2" d="M141270 173220l1480 200c-220,860 -660,1530 -1290,2010 -630,470 -1430,710 -2420,710 -1230,0 -2210,-380 -2930,-1140 -730,-760 -1090,-1830 -1090,-3200 0,-1420 360,-2520 1100,-3300 730,-790 1680,-1180 2840,-1180 1130,0 2050,380 2770,1150 720,770 1070,1850 1070,3250 0,80 0,210 -10,380l-6300 0c50,930 310,1640 790,2130 470,490 1060,740 1760,740 530,0 980,-140 1350,-420 370,-280 660,-720 880,-1330l0 0zm-4700 -2300l4720 0c-70,-710 -250,-1240 -550,-1600 -450,-550 -1040,-830 -1770,-830 -660,0 -1210,220 -1660,660 -440,440 -690,1030 -740,1770l0 0z"/>
    <polygon id="_5" class="fil2" points="149540,175960 149540,164280 151090,164280 151090,175960 "/>
    <polygon id="_6" class="fil2" points="153600,175960 153600,164280 155040,164280 155040,175960 "/>
    <polygon id="_7" class="fil2" points="157220,175960 157220,164280 158660,164280 158660,175960 "/>
    <path id="_8" class="fil2" d="M166410 175960l0 -1260c-660,960 -1550,1440 -2680,1440 -500,0 -960,-90 -1390,-280 -440,-200 -760,-440 -970,-720 -200,-300 -350,-650 -440,-1070 -50,-280 -80,-720 -80,-1340l0 -5230 1430 0 0 4680c0,750 30,1250 90,1510 90,380 280,680 570,890 290,210 650,320 1080,320 430,0 840,-110 1210,-330 370,-220 640,-520 800,-890 150,-380 230,-940 230,-1660l0 -4520 1440 0 0 8460 -1290 0 0 0z"/>
    <path id="_9" class="fil2" d="M169380 173430l1420 -220c80,560 300,1000 670,1300 360,310 870,460 1520,460 670,0 1150,-140 1470,-400 330,-270 480,-580 480,-950 0,-320 -140,-580 -420,-760 -210,-130 -700,-290 -1470,-490 -1050,-260 -1780,-490 -2190,-680 -400,-200 -710,-470 -920,-810 -210,-340 -310,-720 -310,-1130 0,-380 80,-730 250,-1050 180,-320 410,-580 710,-800 220,-160 530,-300 910,-410 390,-120 800,-170 1240,-170 660,0 1240,90 1740,290 500,190 880,450 1120,770 230,330 390,770 490,1320l-1410 200c-60,-440 -240,-790 -550,-1040 -300,-240 -730,-370 -1290,-370 -660,0 -1120,110 -1410,330 -280,210 -420,470 -420,760 0,190 60,350 180,510 110,150 300,270 550,380 140,50 560,170 1260,360 1010,270 1720,490 2120,670 400,170 720,420 950,750 230,330 340,730 340,1220 0,480 -140,930 -410,1350 -290,420 -690,750 -1210,980 -530,230 -1130,340 -1790,340 -1100,0 -1940,-230 -2510,-680 -580,-460 -950,-1130 -1110,-2030l0 0z"/>
    <path id="_10" class="fil2" d="M181230 174680l190 1270c-400,90 -760,130 -1080,130 -520,0 -920,-90 -1210,-250 -280,-170 -490,-380 -600,-650 -120,-270 -170,-830 -170,-1700l0 -4870 -1070 0 0 -1110 1070 0 0 -2100 1430 -860 0 2960 1440 0 0 1110 -1440 0 0 4950c0,420 30,680 80,800 40,110 130,210 240,280 110,60 280,100 490,100 160,0 370,-20 630,-60l0 0z"/>
    <path id="_11" class="fil2" d="M182630 175960l0 -8460 1280 0 0 1290c330,-600 640,-990 920,-1180 280,-200 580,-290 920,-290 480,0 970,150 1480,450l-510 1320c-350,-190 -700,-290 -1050,-290 -310,0 -590,90 -840,280 -250,190 -420,460 -530,790 -160,500 -240,1060 -240,1670l0 4420 -1430 0 0 0z"/>
    <path id="_12" class="fil2" d="M193600 174900c-530,460 -1040,770 -1530,960 -500,190 -1020,280 -1590,280 -930,0 -1650,-220 -2150,-670 -500,-460 -750,-1040 -750,-1740 0,-420 100,-790 290,-1130 190,-350 440,-620 740,-830 310,-200 650,-360 1030,-470 280,-70 710,-140 1280,-210 1160,-140 2010,-300 2560,-490 10,-200 10,-320 10,-370 0,-590 -140,-1000 -410,-1240 -360,-320 -910,-480 -1630,-480 -680,0 -1180,120 -1500,360 -330,230 -560,650 -720,1250l-1400 -190c130,-600 340,-1090 630,-1460 290,-370 720,-650 1270,-860 550,-190 1200,-290 1930,-290 720,0 1310,80 1770,250 450,170 780,390 990,640 220,260 360,590 450,980 50,250 70,690 70,1320l0 1900c0,1330 30,2170 90,2530 60,360 180,700 350,1020l-1500 0c-140,-300 -240,-650 -280,-1060l0 0zm-110 -3180c-520,210 -1310,390 -2350,540 -590,80 -1010,180 -1260,280 -240,110 -430,270 -560,470 -130,200 -200,430 -200,680 0,370 140,690 430,950 300,250 720,380 1270,380 560,0 1050,-130 1480,-370 430,-230 750,-560 950,-980 160,-320 230,-800 230,-1430l10 -520 0 0z"/>
    <path id="_13" class="fil2" d="M200260 174680l200 1270c-400,90 -770,130 -1080,130 -520,0 -920,-90 -1210,-250 -290,-170 -490,-380 -600,-650 -120,-270 -180,-830 -180,-1700l0 -4870 -1060 0 0 -1110 1060 0 0 -2100 1440 -860 0 2960 1430 0 0 1110 -1430 0 0 4950c0,420 20,680 70,800 50,110 130,210 250,280 110,60 280,100 480,100 160,0 380,-20 630,-60l0 0z"/>
    <path id="_14" class="fil2" d="M201140 171730c0,-1570 440,-2720 1310,-3480 720,-620 1610,-930 2660,-930 1160,0 2110,380 2850,1140 740,760 1110,1810 1110,3150 0,1090 -170,1940 -490,2570 -330,620 -800,1100 -1430,1450 -620,340 -1300,510 -2040,510 -1190,0 -2140,-370 -2870,-1130 -740,-760 -1100,-1850 -1100,-3280l0 0zm1470 0c0,1080 230,1890 710,2430 470,540 1070,810 1790,810 710,0 1300,-270 1780,-810 470,-550 710,-1370 710,-2470 0,-1050 -240,-1840 -710,-2370 -480,-540 -1070,-810 -1780,-810 -720,0 -1320,260 -1790,800 -480,540 -710,1340 -710,2420l0 0z"/>
    <path id="_15" class="fil2" d="M210740 175960l0 -8460 1280 0 0 1290c330,-600 630,-990 920,-1180 280,-200 590,-290 920,-290 480,0 970,150 1470,450l-510 1320c-340,-190 -690,-290 -1040,-290 -310,0 -590,90 -840,280 -250,190 -420,460 -530,790 -160,500 -240,1060 -240,1670l0 4420 -1430 0 0 0z"/>
   </g>
   <path class="fil3" d="M97000 26120l117630 0c3750,0 6790,3040 6790,6790l0 99530c0,3750 -3040,6790 -6790,6790l-117630 0c-3750,0 -6790,-3040 -6790,-6790l0 -99530c0,-3750 3040,-6790 6790,-6790zm0 0z"/>
   <g>
    <path class="fil4" d="M209340 62320c-940,0 -1830,430 -2400,1180l-44340 57630 20360 0 9050 -11310 0 11310 20360 0 0 -55780c0,-1680 -1360,-3030 -3030,-3030l0 0zm0 0z"/>
    <path class="fil4" d="M135460 121130l27140 0 0 -24880 -4710 -13570 -17720 0 -4710 13570 0 24880zm0 0z"/>
    <path class="fil4" d="M126410 107560l-22620 0 4520 -27150 13570 0 4530 27150zm0 0z"/>
    <path class="fil4" d="M107540 65710c3770,0 3770,2260 7540,2260 3770,0 3770,-2260 7540,-2260 3770,0 3770,2260 7550,2260 80,0 140,-10 230,-20 110,-360 220,-730 310,-1110 2240,-9050 -13380,-18100 -15610,-22620 -2230,4520 -17850,13570 -15620,22620 90,380 210,750 320,1120 70,0 130,10 200,10 3770,0 3770,-2260 7540,-2260l0 0zm0 0z"/>
   </g>
   <path class="fil5" d="M130170 67970c-3780,0 -3780,-2260 -7550,-2260 -3770,0 -3770,2260 -7540,2260 -3770,0 -3770,-2260 -7540,-2260 -3770,0 -3770,2260 -7540,2260 -70,0 -130,-10 -200,-10 1480,4950 4490,9310 8600,12450l13390 0c4110,-3140 7130,-7500 8610,-12460 -90,10 -150,20 -230,20l0 0zm0 0z"/>
   <path class="fil5" d="M124140 100770l-9040 0c-1250,0 -2270,-1010 -2270,-2260 0,-1250 1020,-2260 2270,-2260l9040 0c1250,0 2270,1010 2270,2260 0,1250 -1020,2260 -2270,2260zm0 0z"/>
   <path class="fil6" d="M162600 96250c-2130,1110 -4420,1870 -6780,2260 -2370,-390 -4660,-1150 -6790,-2260l0 24880 13570 0 0 -24880zm0 0z"/>
   <path class="fil5" d="M149030 96250c-2130,1110 -4420,1870 -6790,2260 -2360,-390 -4660,-1150 -6780,-2260l0 24880 13570 0 0 -24880zm0 0z"/>
   <path class="fil5" d="M152300 66600c-900,-1810 -3100,-2540 -4910,-1640 -710,360 -1280,930 -1640,1640l-5580 16080 17720 0 -5590 -16080zm0 0z"/>
   <path class="fil5" d="M103790 107560l22620 0 0 13570 -22620 0 0 -13570zm0 0z"/>
   <path class="fil7" d="M97000 26120l117630 0c3750,0 6790,3040 6790,6790l0 2260 -131210 0 0 -2260c0,-3750 3040,-6790 6790,-6790zm0 0z"/>
   <path class="fil7" d="M90210 121130l131210 0 0 11310c0,3750 -3040,6790 -6790,6790l-117630 0c-3750,0 -6790,-3040 -6790,-6790l0 -11310zm0 0z"/>
   <path class="fil5" d="M201060 82680l11310 0 0 4520 -11310 0 0 -4520zm0 0z"/>
   <path class="fil5" d="M205580 91720l6790 0 0 4530 -6790 0 0 -4530zm0 0z"/>
   <path class="fil5" d="M201060 100770l11310 0 0 4530 -11310 0 0 -4530zm0 0z"/>
   <path class="fil5" d="M205580 109820l6790 0 0 4530 -6790 0 0 -4530zm0 0z"/>
   <path class="fil8" d="M137720 139230l36190 0 0 9050 -36190 0 0 -9050zm0 0z"/>
   <path class="fil7" d="M126410 148280l58810 0c5000,0 9050,4050 9050,9050l-76910 0c0,-5000 4050,-9050 9050,-9050zm0 0z"/>
   <path class="fil5" d="M142240 127920l4530 0 0 4520 -4530 0 0 -4520zm0 0z"/>
   <path class="fil5" d="M151290 127920l9050 0 0 4520 -9050 0 0 -4520zm0 0z"/>
   <path class="fil5" d="M164860 127920l4530 0 0 4520 -4530 0 0 -4520zm0 0z"/>
   <path class="fil9" d="M212370 55530l-4520 0 0 -9050 -22630 0 0 -4520 27150 0 0 13570zm0 0z"/>
   <path class="fil9" d="M176180 41960l4520 0 0 4520 -4520 0 0 -4520zm0 0z"/>
   <path class="fil10" d="M214630 23860l-117630 0c-5000,0 -9040,4050 -9050,9050l0 99530c10,5000 4050,9050 9050,9050l38460 0 0 4530 -9050 0c-6250,0 -11310,5060 -11310,11310l0 2260 81430 0 0 -2260c0,-6250 -5060,-11310 -11310,-11310l-9040 0 0 -4530 38450 0c5000,0 9040,-4050 9050,-9050l0 -99530c-10,-5000 -4050,-9050 -9050,-9050zm-117630 4520l117630 0c2500,10 4520,2030 4530,4530l-126690 0c10,-2500 2030,-4520 4530,-4530l0 0zm88220 122160c2880,0 5440,1820 6400,4520l-71610 0c960,-2710 3520,-4520 6400,-4520l58810 0zm-13570 -4520l-31670 0 0 -4530 31670 0 0 4530zm47510 -13580c-10,2500 -2030,4520 -4530,4530l-117630 0c-2500,-10 -4520,-2030 -4530,-4530l0 -9040 126690 0 0 9040zm-90560 -66990c-360,-150 -710,-340 -1050,-550 -3000,-1940 -6860,-1940 -9870,0 -1570,1080 -3640,1080 -5210,0 -1460,-970 -3180,-1480 -4930,-1450 -1750,-30 -3470,480 -4930,1450 -320,200 -640,370 -980,520 -30,20 -60,30 -90,40 -350,-4650 5490,-10000 9830,-13960 1430,-1320 2710,-2490 3730,-3570 1010,1080 2290,2250 3730,3570 4330,3960 10170,9310 9820,13970l-50 -20zm-25650 4310c270,-100 530,-210 780,-340 110,-50 230,-90 340,-140 320,-170 600,-340 860,-500 760,-550 1670,-840 2610,-810 930,-30 1850,260 2600,810 3010,1940 6870,1940 9870,0 1570,-1080 3640,-1080 5220,0 260,160 550,330 870,500 100,50 230,90 340,150 260,120 510,230 780,330 40,10 60,30 90,40 -1420,3230 -3570,6090 -6280,8350l-11870 0c-2720,-2250 -4880,-5120 -6290,-8360 30,-10 50,-20 80,-30l0 0zm7280 12920l9740 0 2260 13570 -7130 0c-1250,0 -2270,1010 -2270,2260 0,1250 1020,2260 2270,2260l7880 0 760 4530 -17280 0 3770 -22620zm-4180 27140l18090 0 0 9050 -18090 0 0 -9050zm104060 -27140l-9050 0 0 4520 9050 0 0 4520 -4530 0 0 4530 4530 0 0 4520 -9050 0 0 4530 9050 0 0 4520 -4530 0 0 4530 4530 0 0 4520 -15840 0 0 -9050c0,-1250 -1010,-2260 -2260,-2260 -690,0 -1340,310 -1770,850l-8370 10460 -14670 0 41530 -53990c300,-320 800,-340 1120,-40 150,130 240,310 260,510l0 17330zm-20360 36190l-2080 0 2080 -2600 0 2600zm-38460 -19170c1440,600 2970,960 4530,1070 1550,-110 3080,-470 4520,-1070l0 19170 -9050 0 0 -19170 0 0zm-9510 -14760l14500 0 3510 10100c-1260,600 -2600,1010 -3970,1210 -2020,-380 -3970,-1060 -5780,-2020 -60,-30 -120,-40 -170,-70 -180,-70 -360,-120 -550,-140 -290,-30 -580,-20 -860,50 -90,30 -170,50 -250,90 -60,20 -130,30 -190,60 -1810,970 -3760,1650 -5780,2030 -1380,-210 -2710,-610 -3970,-1210l3510 -10100zm1570 -4530l4480 -12900c460,-660 1370,-820 2030,-360 140,100 270,220 370,360l4480 12900 -11360 0zm-5630 19290c1440,600 2970,960 4520,1070 1560,-110 3090,-470 4530,-1070l0 19170 -9050 0 0 -19170 0 0zm81440 19170l-4530 0 0 -53520c0,-2930 -2370,-5300 -5290,-5300 -1650,0 -3200,770 -4200,2070l-40280 52360 0 -18230c0,-230 -40,-460 -110,-670 -10,-20 0,-50 -10,-70l-4720 -13580 -5580 -16070c-30,-90 -70,-180 -110,-270 -1470,-2930 -5030,-4110 -7950,-2650 -1150,570 -2070,1500 -2650,2650 -40,90 -80,180 -110,270l-5590 16070 -4710 13580c-10,20 -10,50 -10,70 -70,210 -110,440 -120,670l0 22620 -4520 0 0 -11310c0,-70 -30,-130 -40,-200 -10,-60 20,-110 10,-170l-4320 -25890c3900,-3370 6750,-7770 8240,-12700 10,-20 10,-40 10,-60 10,-20 20,-30 30,-50 110,-360 220,-730 310,-1110 1840,-7440 -5600,-14250 -11030,-19220 -1780,-1450 -3380,-3110 -4760,-4940 -660,-1120 -2100,-1500 -3220,-840 -340,210 -630,490 -830,840 -1380,1830 -2980,3490 -4760,4940 -5430,4970 -12860,11780 -11030,19220 90,350 190,690 350,1220l0 0c1490,4930 4350,9330 8240,12700l-4320 25890c-10,60 20,110 10,170 0,70 -40,130 -40,200l0 11310 -9050 0 0 -81440 126690 0 0 81440zm0 0z"/>
   <path class="fil10" d="M142240 127920l4530 0 0 4520 -4530 0 0 -4520zm0 0z"/>
   <path class="fil10" d="M151290 127920l9050 0 0 4520 -9050 0 0 -4520zm0 0z"/>
   <path class="fil10" d="M164860 127920l4530 0 0 4520 -4530 0 0 -4520zm0 0z"/>
   <path class="fil10" d="M207850 55530l4520 0 0 -13570 -27150 0 0 4520 22630 0 0 9050zm0 0z"/>
   <path class="fil10" d="M176180 41960l4520 0 0 4520 -4520 0 0 -4520zm0 0z"/>
   <g>
    <path class="fil11" d="M189960 122930c0,21020 17260,38280 38280,38280 21020,0 38280,-17260 38280,-38280 0,-21020 -17260,-38280 -38280,-38280 -21020,0 -38280,17260 -38280,38280z"/>
    <path class="fil2" d="M191490 122930c0,10090 4150,19280 10810,25940 6670,6670 15850,10810 25940,10810 10090,0 19270,-4140 25940,-10810 6660,-6660 10810,-15850 10810,-25940 0,-10080 -4150,-19270 -10810,-25940 -6670,-6660 -15850,-10800 -25940,-10800 -10090,0 -19270,4140 -25940,10800 -6660,6670 -10810,15860 -10810,25940zm8640 28110c-7210,-7220 -11700,-17170 -11700,-28110 0,-10930 4490,-20880 11700,-28100 7220,-7220 17180,-11710 28110,-11710 10930,0 20890,4490 28110,11710 7210,7220 11700,17170 11700,28100 0,10940 -4490,20890 -11700,28110 -7220,7220 -17180,11700 -28110,11700 -10930,0 -20890,-4480 -28110,-11700z"/>
    <g>
     <g>
      <path class="fil12" d="M195040 124120c0,-9690 3020,-18130 9640,-24750 790,-800 1280,-1010 2100,-1790 5930,-5640 14300,-7840 22660,-7840 6590,0 15560,3350 20110,7690 860,830 1440,1120 2250,1940 2060,2060 5390,6600 6520,9330 4220,10160 4200,18080 90,28250 -1170,2850 -4380,7310 -6610,9540 -5590,5600 -14330,9630 -22360,9630 -7050,0 -9210,-590 -15220,-3030 -1980,-800 -5660,-3110 -7290,-4670 -870,-820 -1440,-1120 -2250,-1930 -800,-790 -1010,-1290 -1780,-2100l-3270 -4510c-2630,-4870 -4590,-9310 -4590,-15760z"/>
     </g>
     <g>
      <g>
       <path class="fil12" d="M224050 114560l490 1300c680,2520 2300,8380 3100,10060l-6580 0c40,-1560 1110,-3990 1560,-5620 390,-1400 1300,-4150 1430,-5740l0 0zm-11960 23320l5390 0 2380 -7780 8680 0c370,790 2320,6890 2390,7780l5680 0c-120,-1530 -1630,-5360 -2210,-7060l-5680 -17650c-1220,-3770 50,-3100 -7060,-3100 -1110,0 -1960,4240 -2730,6540 -750,2250 -1440,4620 -2240,7030l-4600 14240 0 0z"/>
      </g>
      <g>
       <polygon class="fil12" points="238400,137880 243790,137880 243790,117840 238400,117840 "/>
      </g>
      <g>
       <path class="fil12" d="M238110 112460c0,3350 5980,3700 5980,-300 0,-3480 -5980,-3870 -5980,300z"/>
      </g>
     </g>
    </g>
    <g>
     <path class="fil13" d="M195040 124120c0,-9690 3020,-18130 9640,-24750 790,-800 1280,-1010 2100,-1790 5930,-5640 14300,-7840 22660,-7840 6590,0 15560,3350 20110,7690 860,830 1440,1120 2250,1940 2060,2060 5390,6600 6520,9330 4220,10160 4200,18080 90,28250 -1170,2850 -4380,7310 -6610,9540 -5590,5600 -14330,9630 -22360,9630 -7050,0 -9210,-590 -15220,-3030 -1980,-800 -5660,-3110 -7290,-4670 -870,-820 -1440,-1120 -2250,-1930 -800,-790 -1010,-1290 -1780,-2100l-3270 -4510c-2630,-4870 -4590,-9310 -4590,-15760z"/>
    </g>
    <g>
     <g>
      <path class="fil11" d="M224050 114560l490 1300c680,2520 2300,8380 3100,10060l-6580 0c40,-1560 1110,-3990 1560,-5620 390,-1400 1300,-4150 1430,-5740l0 0zm-11960 23320l5390 0 2380 -7780 8680 0c370,790 2320,6890 2390,7780l5680 0c-120,-1530 -1630,-5360 -2210,-7060l-5680 -17650c-1220,-3770 50,-3100 -7060,-3100 -1110,0 -1960,4240 -2730,6540 -750,2250 -1440,4620 -2240,7030l-4600 14240 0 0z"/>
     </g>
     <g>
      <polygon class="fil11" points="238400,137880 243790,137880 243790,117840 238400,117840 "/>
     </g>
     <g>
      <path class="fil11" d="M238110 112460c0,3350 5980,3700 5980,-300 0,-3480 -5980,-3870 -5980,300z"/>
     </g>
    </g>
   </g>
  </g>
 </g>
 <g id="Layer_x0020_1_0">
  <metadata id="CorelCorpID_1Corel-Layer"/>
  <path class="fil14" d="M20820 175250c680,1030 1120,2020 1550,3120 320,640 490,1820 1990,1820 440,0 1070,-130 1630,-440 630,-330 1110,-830 1360,-1590l600 -2020 1460 -720 100 100c-200,760 -250,1490 -250,2060 0,1690 1460,2330 2620,2330 680,0 1290,-330 1290,-950 0,-800 -340,-2160 -780,-3380 680,-680 1360,-1360 2140,-1910l120 60c340,1440 530,2860 530,3810 0,930 -410,1960 -750,2630 -700,1320 -1940,2370 -3440,2370 -1140,0 -2410,-570 -3280,-1630l-50 0c-820,1020 -2090,1940 -4120,1940l-630 0c-100,1340 -390,2290 -830,3140 -1210,2360 -4800,4030 -8180,4030 -4700,0 -7060,-2710 -7060,-6320 0,-2230 730,-4300 1850,-5770l920 380c-700,1340 -1170,2600 -1170,3840 0,3380 2750,4990 5920,4990 2940,0 6580,-1870 7240,-4040 -250,-2370 -1140,-3480 -2500,-5640 410,-720 940,-1440 1600,-2210l120 0 0 0 0 0zm54210 -12720c990,620 1960,1350 2910,2190 -530,750 -1190,1430 -2010,2030 -950,-770 -1900,-1430 -2870,-2130 660,-740 1310,-1450 1970,-2090l0 0 0 0 0 0 0 0zm510 9240c-1600,0 -2910,1050 -2910,1830 0,1670 3200,2190 7030,2170 -480,-1960 -2160,-4000 -4120,-4000zm-3590 8940c2080,0 3900,-60 5290,-410 1550,-390 2860,-1170 2860,-1710 0,-140 0,-310 -50,-450 -870,80 -1870,80 -2740,80 -2820,0 -4980,-640 -5830,-2220 -210,-440 -360,-930 -360,-1490 0,-1530 660,-3020 1820,-4050 970,-850 2040,-1380 3130,-1380 1970,0 3540,1580 4640,4070 600,1360 1010,2930 1010,4910 0,1320 -360,2430 -1180,3250 -1530,1480 -4350,2040 -8670,2040l-1960 0 0 0 -510 0c-1070,0 -1840,-190 -2450,-660l-100 0c30,250 50,490 50,720 0,970 -320,2210 -970,3200 -1920,2850 -4000,4090 -5800,4090 -1820,0 -4050,-700 -6060,-1610l360 -700c650,270 1550,450 2790,450 3250,0 7520,-3120 8050,-6170 -120,-250 -340,-580 -650,-930 -950,-1130 -1550,-2070 -2110,-3060 480,-950 920,-1710 1330,-2400l170 -20c1390,2830 2650,4450 5460,4450l440 0 0 0 2040 0 0 0 0 0 0 0 0 0zm-14080 2990c240,-1300 260,-2760 260,-4120l0 -2020c0,-3770 -480,-9250 -870,-12820 680,-730 1630,-1590 2380,-2170l220 60c510,4490 630,9690 630,14500 0,1260 -50,2490 -170,3390 -70,1140 -730,2000 -2140,3320l-310 -140zm-14490 -5950c70,1770 940,3160 3980,3160 1890,0 3490,-490 5260,-1330 320,-140 490,-330 490,-490 0,-1110 -850,-2580 -2280,-3920 -1390,-1260 -3230,-2370 -4950,-3110 -590,-250 -780,-510 -780,-760 0,-510 680,-1580 1240,-2350l190 -20c1970,1030 4170,2560 5800,4260 1480,1570 2400,3160 2400,4890 0,1280 -390,2480 -1020,3600 -2160,1090 -4460,1920 -6740,1920 -2770,0 -4660,-1300 -4660,-4350 0,-330 0,-840 120,-1500l950 0 0 0 0 0 0 0 0 0zm-5010 -5030l1720 2780c630,1030 1220,2150 1220,3920l0 2260c0,1830 -1170,3790 -3060,5730 -1480,1310 -2790,1870 -4000,1870 -1800,0 -3860,-560 -6240,-1580l270 -700c750,200 1620,370 2690,370 3420,-20 6920,-2520 8520,-5570 190,-350 260,-680 260,-910 0,-350 -190,-740 -340,-1090 -870,-1640 -1840,-3140 -2910,-4530 560,-880 1120,-1730 1730,-2570l140 20 0 0 0 0 0 0 0 0z"/>
 </g>
</svg>
