<?xml version="1.0" encoding="UTF-8"?>
<!DOCTYPE svg PUBLIC "-//W3C//DTD SVG 1.1//EN" "http://www.w3.org/Graphics/SVG/1.1/DTD/svg11.dtd">
<!-- Creator: CorelDRAW -->
<svg xmlns="http://www.w3.org/2000/svg" xml:space="preserve" width="3.70333in" height="2.08319in" version="1.1" style="shape-rendering:geometricPrecision; text-rendering:geometricPrecision; image-rendering:optimizeQuality; fill-rule:evenodd; clip-rule:evenodd"
viewBox="0 0 3703.33 2083.19"
 xmlns:xlink="http://www.w3.org/1999/xlink"
 xmlns:xodm="http://www.corel.com/coreldraw/odm/2003">
 <defs>
  <style type="text/css">
   <![CDATA[
    .fil0 {fill:#E6E7E8}
    .fil7 {fill:#FFFEFE}
    .fil5 {fill:#D34D2F;fill-rule:nonzero}
    .fil3 {fill:#E96645;fill-rule:nonzero}
    .fil4 {fill:#F2906E;fill-rule:nonzero}
    .fil2 {fill:#373435;fill-opacity:0.031373}
    .fil1 {fill:#373435;fill-opacity:0.101961}
    .fil6 {fill:url(#id0)}
   ]]>
  </style>
  <linearGradient id="id0" gradientUnits="userSpaceOnUse" x1="1141.91" y1="543.55" x2="1718.72" y2="1541.69">
   <stop offset="0" style="stop-opacity:1; stop-color:#CB4827"/>
   <stop offset="0.501961" style="stop-opacity:1; stop-color:#C54027"/>
   <stop offset="1" style="stop-opacity:1; stop-color:#B73328"/>
  </linearGradient>
 </defs>
 <g id="Layer_x0020_1">
  <metadata id="CorelCorpID_0Corel-Layer"/>
  <polygon class="fil0" points="-0,0 3703.33,0 3703.33,2083.19 -0,2083.19 "/>
  <polygon class="fil1" points="-0,1920.35 -0,1870.5 -0,1840.37 -0,1834.9 -0,1789.12 -0,1787.38 -0,1740.23 -0,1707.82 -0,1693.56 -0,1603.65 -0,1596.47 -0,1595.58 -0,1588.4 -0,1566.76 -0,1550.09 -0,1411.65 -0,1271.74 -0,1215.2 -0,1177.93 -0,1176.41 1026.94,609.65 1020.87,613.32 1015.21,617.55 1014.39,618.3 1526.83,335.59 1493.6,354.72 1461.4,375.37 1430.28,397.49 1400.29,421.04 1371.48,445.96 1343.91,472.21 1317.61,499.73 1292.65,528.48 1269.08,558.41 1246.93,589.47 1238.09,603.22 1913.04,238.78 1913.04,1042.61 2313.93,1204.2 2714.82,1042.61 1673.96,1484.42 1798.49,1484.42 1806.06,1484.04 1813.4,1482.93 1820.48,1481.13 1827.25,1478.67 1395.14,1659.47 1398.23,1662.15 1428.22,1685.69 1459.34,1707.81 1491.54,1728.47 1524.78,1747.6 1558.99,1765.16 1594.14,1781.09 1630.17,1795.37 1667.02,1807.92 1704.66,1818.7 1743.03,1827.67 1782.07,1834.78 1821.75,1839.96 1862.01,1843.19 1902.8,1844.41 1921.21,1844.41 1961.99,1843.37 2002.23,1840.3 2041.88,1835.25 2080.9,1828.26 2119.22,1819.39 2156.81,1808.68 2193.61,1796.19 1422.52,2083.19 1288.78,2083.19 1271.55,2083.19 382.48,2083.19 369.66,2083.19 -0,2083.19 -0,2011.38 -0,1979.15 -0,1965.72 -0,1958.37 "/>
  <path class="fil2" d="M219.02 1825.17c7,11 12,21 16,32 3,7 5,19 21,19 5,0 11,-1 17,-5 7,-3 12,-9 14,-17l6 -21 15 -7 1 1c-2,8 -3,15 -3,21 0,18 15,24 27,24 7,0 13,-3 13,-10 0,-8 -4,-22 -8,-35 7,-7 14,-14 22,-20l1 1c4,15 6,30 6,40 0,10 -4,20 -8,27 -7,14 -20,25 -36,25 -12,0 -25,-6 -34,-17l-1 0c-9,11 -22,20 -43,20l-7 0c-1,14 -4,24 -9,33 -13,25 -50,42 -85.01,42 -49,0 -73.01,-28 -73.01,-66 0,-23 7,-45 19,-60l10 4c-7,14 -12,27 -12,40 0,35 29,52 61,52 30,0 68.01,-20 75.01,-42 -3,-25 -12,-36 -26,-59 4,-7 10,-15 17,-23l1 0 0 0 0 0 0 0 3 1 0 0 0 0 0 0 0 0 0.02 -0.01zm563.05 -132.01c10,6 20,14 30,23 -6,8 -12,15 -21,21 -10,-8 -20,-15 -30,-22 7,-8 14,-15 20,-22l0 0 1 0 0 0 0 0 0 0 0 0 0 -0zm5 96.01c-17,0 -30,11 -30,19 0,17 33,23 73.01,23 -5,-20 -22,-42 -43,-42zm-37 93.01c22,0 41,-1 55,-4 16,-4 30,-12 30,-18 0,-2 0,-3 -1,-5 -9,1 -19,1 -29,1 -29,0 -52,-7 -60,-23 -2,-4 -4,-10 -4,-15 0,-16 7,-32 19,-42 10,-9 21,-14 33,-14 20,0 37,17 48,42 6,14 11,30 11,51 0,14 -4,25 -12,34 -16,15 -45,21 -90.01,21l-21 0 0 0 -5 0c-11,0 -19,-2 -25,-7l-1 0c0,3 1,5 1,7 0,10 -3,23 -10,33 -20,30 -42,43 -60,43 -19,0 -42,-7 -63,-17l4 -7c7,3 16,5 29,5 34,0 78.01,-33 84.01,-64 -1,-3 -3,-6 -7,-10 -10,-12 -16,-22 -22,-32 5,-10 10,-18 14,-25l2 0c14,29 28,46 57,46l4 0 0 0 21 0 0 0 0 0 0 0 -2 0 0 0 0 0 0 0 0 0 -0 -0zm-146.01 31c3,-14 3,-29 3,-43l0 -21c0,-39 -5,-96.01 -9,-133.01 7,-8 17,-17 25,-23l2 1c5,47 7,101.01 7,151.01 0,13 -1,26 -2,35 -1,12 -8,21 -22,35l-3 -1 0 0 0 0 0 0 -1 -1 0 0 0 0 0 0 0 0 -0 0zm-151.02 -62.01c1,18 10,33 41,33 20,0 36,-5 55,-14 3,-2 5,-3 5,-5 0,-12 -9,-27 -24,-41 -14,-13 -34,-25 -51,-32 -6,-3 -8,-5 -8,-8 0,-5 7,-17 13,-24l2 0c20,11 43,27 60,44 15,16 25,33 25,51 0,13 -4,26 -11,38 -22,11 -46,20 -70.01,20 -29,0 -48,-13 -48,-45 0,-3 0,-9 1,-16l10 0 0 0 0 0 0 0 0 -1 0 0 0 0 0 0 0 0 0 0zm-52 -52l18 29c7,11 13,22 13,41l0 24c0,19 -12,39 -32,60 -15,14 -29,20 -42,20 -19,0 -40,-6 -65,-17l3 -7c8,2 17,4 28,4 35,0 72.01,-26 88.01,-58 2,-4 3,-7 3,-9 0,-4 -2,-8 -4,-11 -9,-17 -19,-33 -30,-47 6,-9 12,-18 18,-27l2 0 0 0 0 0 0 0 0 -2 0 0 0 0 0 0 0 0 0 -0z"/>
  <g id="_2659012402784">
   <g>
    <path class="fil3" d="M2033.71 1122.39l-120.67 -883.61 -8.18 0c-437.71,2.04 -793.61,355.9 -793.61,793.61l0 8.18 922.46 79.77 0 2.05z"/>
    <path class="fil4" d="M1921.22 238.78l-8.18 0 0 803.83 400.89 161.59 400.89 -161.59 0 -8.18c-2.05,-437.71 -355.9,-793.61 -793.61,-793.61l0.01 -2.04z"/>
    <path class="fil5" d="M2714.82 1042.61l0 8.18c-2.05,437.71 -355.9,793.61 -793.61,793.61l-18.41 0c-437.71,-2.04 -793.61,-355.9 -793.61,-793.61l0 -8.18 1605.63 0z"/>
    <path class="fil6" d="M1062.15 600.81l736.34 0c40.9,0 73.63,32.72 73.63,73.63l0 736.34c0,40.9 -32.72,73.63 -73.63,73.63l-736.34 0c-40.9,0 -73.63,-32.72 -73.63,-73.63l0 -736.34c0,-40.9 32.72,-73.63 73.63,-73.63z"/>
   </g>
   <path class="fil7" d="M1377.15 854.44l38.86 0c75.68,0 126.81,24.54 114.54,110.45 -12.27,73.63 -75.68,69.54 -151.36,69.54l0 -30.68 0 -149.31 -2.04 0zm0 278.17c85.91,0 165.68,0 218.85,-47.05 53.19,-47.05 83.86,-106.36 63.41,-200.44 -34.77,-161.59 -237.27,-128.85 -404.98,-128.85l0 576.8 122.72 0 0 -198.4 0 -2.05z"/>
  </g>
 </g>
</svg>
