<?xml version="1.0" encoding="UTF-8"?>
<!DOCTYPE svg PUBLIC "-//W3C//DTD SVG 1.1//EN" "http://www.w3.org/Graphics/SVG/1.1/DTD/svg11.dtd">
<!-- Creator: CorelDRAW -->
<svg xmlns="http://www.w3.org/2000/svg" xml:space="preserve" width="3.70333in" height="2.08333in" version="1.1" style="shape-rendering:geometricPrecision; text-rendering:geometricPrecision; image-rendering:optimizeQuality; fill-rule:evenodd; clip-rule:evenodd"
viewBox="0 0 3703.33 2083.33"
 xmlns:xlink="http://www.w3.org/1999/xlink"
 xmlns:xodm="http://www.corel.com/coreldraw/odm/2003">
 <defs>
  <style type="text/css">
   <![CDATA[
    .fil6 {fill:#001D36}
    .fil4 {fill:#001E36}
    .fil5 {fill:#31A7FE}
    .fil0 {fill:#E6E7E8}
    .fil3 {fill:#FAC791;fill-rule:nonzero}
    .fil2 {fill:#373435;fill-opacity:0.031373}
    .fil1 {fill:#373435;fill-opacity:0.101961}
   ]]>
  </style>
 </defs>
 <g id="Layer_x0020_1">
  <metadata id="CorelCorpID_0Corel-Layer"/>
  <polygon class="fil0" points="-1.67,1.74 3701.66,1.74 3701.66,2084.93 -1.67,2084.93 "/>
  <path class="fil1" d="M-1.67 2031.59l0 -59.5 0 -19.54 0 -53.83 0 -0.35 0 -51.93 0 -5.74 0 -0.01 0 -0 0 -10.94 0 -4.87 0 -3.88 0 -0.07 0 -12.7 0 -25.09 0 -1.98 0 -5.4 0 -1.43 0 -1.96 0 -4.87 0 -0.77 0 -44.31 0 -81.56 0 -0 0 -18.11 0 -88.8 0 -9.22 0 -0.01 0 -29.3 0 -42.39 0 -0.94 0 -315.63 0 -142.63 1131.48 -729.06 -11.58 8.24 -11.16 8.77 -10.72 9.28 -10.26 9.78 -9.78 10.26 -9.29 10.72 -8.77 11.16 -8.24 11.58 -7.69 11.98 -7.11 12.37 -6.52 12.74 -5.92 13.08 -5.29 13.41 -4.65 13.72 -3.98 14.02 -3.3 14.29 -2.6 14.54 -1.88 14.78 -1.14 15 -0.39 15.2 0 356.28 340.38 -199.26 0 1.1 1.59 -0.4 2.26 -0.38 2.89 -0.35 3.48 -0.33 4.02 -0.31 4.52 -0.28 4.98 -0.27 5.4 -0.25 5.78 -0.23 6.11 -0.21 6.41 -0.2 6.65 -0.18 6.86 -0.17 7.03 -0.16 7.15 -0.14 7.23 -0.13 7.27 -0.13 7.27 -0.11 7.22 -0.11 7.13 -0.1 7 -0.09 6.83 -0.09 6.61 -0.09 6.36 -0.09 6.06 -0.08 5.72 -0.08 5.33 -0.08 4.91 -0.08 4.44 -0.09 3.93 -0.09 3.37 -0.09 2.78 -0.1 5.35 -0.1 5.34 -0.09 5.33 -0.08 5.33 -0.07 5.32 -0.05 5.31 -0.04 5.31 -0.01 5.3 0 5.29 0.03 5.28 0.06 5.28 0.09 5.26 0.12 5.26 0.15 5.25 0.19 5.24 0.22 5.23 0.26 5.22 0.31 5.21 0.35 5.2 0.39 5.19 0.44 5.18 0.49 5.17 0.55 5.16 0.6 5.15 0.66 5.13 0.72 5.12 0.78 5.11 0.84 5.1 0.91 5.09 0.98 5.07 1.05 5.06 1.12 5.05 1.2 8.58 2.27 8.44 2.48 8.3 2.69 8.15 2.9 8 3.11 7.84 3.32 7.68 3.52 7.52 3.73 7.34 3.94 7.17 4.14 7 4.35 6.81 4.55 6.63 4.75 6.44 4.96 6.24 5.16 6.04 5.35 5.84 5.56 5.63 5.76 5.43 5.95 5.21 6.15 4.99 6.35 4.76 6.54 4.54 6.74 4.31 6.93 4.07 7.12 3.83 7.31 3.58 7.51 3.33 7.69 3.08 7.89 2.82 8.07 2.56 8.26 2.3 8.45 1.19 4.85 1.1 4.87 1.01 4.9 0.92 4.92 0.83 4.94 0.75 4.95 0.66 4.96 0.57 4.98 0.48 4.99 0.4 5 0.31 5.01 0.22 5.01 0.14 5.02 0.06 5.02 -0.03 5.02 -0.11 5.02 -0.2 5.02 -0.28 5.01 -0.36 5 -0.44 5 -0.53 4.99 -0.43 3.52 170.11 -88.99 8.36 -4.33 8.74 -4.03 9.12 -3.72 9.49 -3.38 9.84 -3.03 10.2 -2.65 10.54 -2.26 5.49 -0.98 5.75 -0.89 5.99 -0.8 6.21 -0.71 6.42 -0.62 6.61 -0.53 6.78 -0.43 6.93 -0.34 7.07 -0.24 7.18 -0.15 7.28 -0.05 7.36 0.04 7.43 0.15 7.47 0.24 7.5 0.34 7.52 0.44 7.51 0.54 7.48 0.64 7.44 0.74 7.38 0.84 7.31 0.94 7.21 1.05 7.1 1.15 6.97 1.25 6.82 1.36 6.65 1.46 6.47 1.57 6.27 1.67 6.05 1.78 5.81 1.89 5.56 2 5.29 2.11 4.52 2.69 3.04 3.81 1.83 4.71 0.9 5.39 0.22 5.86 -0.17 6.1 -0.3 6.13 -0.16 5.93 0.02 4.04 0.06 5.02 0.09 5.85 0.1 6.52 0.1 7.04 0.09 7.41 0.06 7.63 0.02 7.69 -0.03 7.6 -0.09 7.36 -0.17 6.96 -0.26 6.41 -0.36 5.71 -0.48 4.85 -0.61 3.85 -0.75 2.69 -140.45 69.56 3.04 1.17 3.85 1.48 3.89 1.5 3.94 1.52 3.99 1.57 4.05 1.61 4.11 1.67 4.18 1.74 4.26 1.81 4.34 1.89 4.43 1.98 4.52 2.08 4.62 2.19 4.72 2.31 4.83 2.44 4.96 2.57 5.07 2.72 5.21 2.87 5.35 3.04 5.48 3.2 7.17 4.44 7.08 4.7 6.95 4.98 6.78 5.28 6.57 5.61 6.31 5.96 6.02 6.34 5.69 6.74 5.31 7.17 4.9 7.61 4.45 8.09 3.95 8.58 3.42 9.11 2.85 9.65 2.23 10.22 1.58 10.81 0.46 4.72 0.35 4.68 0.24 4.64 0.13 4.6 0.02 4.56 -0.08 4.52 -0.19 4.48 -0.3 4.44 -0.41 4.41 -0.52 4.37 -0.63 4.33 -0.73 4.29 -0.83 4.26 -0.94 4.21 -1.05 4.18 -1.15 4.14 -1.26 4.1 -1.37 4.06 -1.47 4.02 -1.58 3.98 -1.69 3.94 -1.79 3.91 -1.9 3.87 -2 3.83 -2.1 3.79 -2.21 3.75 -2.31 3.71 -2.42 3.67 -2.52 3.63 -2.63 3.59 -2.73 3.56 -2.83 3.52 -1.65 1.96 -1.65 1.79 -1.65 1.67 -1.65 1.58 -1.65 1.52 -1.65 1.51 -1.65 1.54 -1.65 1.6 -2.78 2.68 -2.97 2.67 -3.15 2.65 -3.32 2.63 -3.47 2.6 -3.61 2.56 -3.74 2.5 -3.85 2.45 -3.96 2.39 -4.05 2.31 -4.13 2.23 -4.19 2.14 -4.24 2.05 -420.11 192.62 176.65 279.53 385.37 0 15.2 -0.39 15 -1.14 14.78 -1.88 14.54 -2.59 14.29 -3.3 14.02 -3.98 13.72 -4.65 13.41 -5.29 -410.36 165.57 44.37 70.22 -44.37 -70.22 -10.64 4.3 40.76 65.92 -40.76 -65.92 -163.39 65.92 -54.46 0 -1052.99 0 -58.39 0 -18.6 0 -13.06 0 -203.22 0 -27.07 0 -58.74 0 -146.89 0 -28.08 0 -8.6 0 -15.68 0 -2.76 0 -119.92 0 -63.83 0 -65 0 0 -2.94 0 -50.4zm1296.61 -159.23l713.39 0 -171.18 -276.83 5.88 -2.69 176.65 279.53 -11.35 0 -171.18 -276.83 -593.78 272.25 6.59 1.18 14.78 1.88 15 1.14 15.2 0.39z"/>
  <path class="fil2" d="M218.02 1826.24c7,11 12,21 16,32 3,7 5,19 21,19 5,0 11,-1 17,-5 7,-3 12,-9 14,-17l6 -21 15 -7 1 1c-2,8 -3,16 -3,21 0,18 15,24 27,24 7,0 13,-4 13,-10 0,-8 -4,-23 -8,-35 7,-7 14,-14 22,-20l1 1c4,15 6,30 6,40 0,10 -4,20 -8,27 -7,14 -20,25 -36,25 -12,0 -25,-6 -34,-17l-1 0c-9,11 -22,20 -43,20l-7 0c-1,14 -4,24 -9,33 -13,25 -50,42 -85.01,42 -49,0 -73.01,-28 -73.01,-66 0,-23 8,-45 19,-60l10 4c-7,14 -12,27 -12,40 0,35 29,52 62,52 31,0 68.01,-19 75.01,-42 -3,-25 -12,-36 -26,-59 4,-7 10,-15 17,-23l1 0 0 0 2 1 0 0 0 0 0 0 0.02 -0.01zm564.05 -133.01c10,6 20,14 30,23 -6,8 -12,15 -21,21 -10,-8 -20,-15 -30,-22 7,-8 14,-15 20,-22l0 0 1 0 0 0 0 0 0 0 0 -0zm5 96.01c-17,0 -30,11 -30,19 0,17 33,23 73.01,23 -5,-20 -22,-42 -43,-42zm-37 93.01c22,0 41,-1 55,-4 16,-4 30,-12 30,-18 0,-2 0,-3 -1,-5 -9,1 -19,1 -29,1 -29,0 -52,-7 -61,-23 -2,-5 -4,-10 -4,-16 0,-16 7,-32 19,-42 10,-9 21,-14 33,-14 20,0 37,16 48,42 6,14 11,30 11,51 0,14 -4,25 -12,34 -16,15 -45,21 -90.01,21l-20 0 0 0 -5 0c-11,0 -19,-2 -25,-7l-1 0c0,3 1,5 1,7 0,10 -3,23 -10,33 -20,30 -42,43 -60,43 -19,0 -42,-7 -63,-17l4 -7c7,3 16,5 29,5 34,0 78.01,-33 84.01,-64 -1,-3 -4,-6 -7,-10 -10,-12 -16,-22 -22,-32 5,-10 10,-18 14,-25l2 0c14,29 28,46 57,46l5 0 0 0 21 0 0 0 -3 1 0 0 0 0 0 0 -0 -0zm-146.01 31c2,-14 3,-29 3,-43l0 -21c0,-39 -5,-96.01 -9,-133.01 7,-8 17,-17 25,-23l2 1c5,47 7,101.01 7,151.01 0,13 -1,26 -2,35 -1,12 -8,21 -22,35l-3 -1 0 0 -1 -1 0 0 0 0 0 0 -0 0zm-151.02 -62.01c1,18 10,33 41,33 20,0 36,-5 55,-14 3,-1 5,-3 5,-5 0,-12 -9,-27 -24,-41 -14,-13 -34,-25 -51,-32 -6,-3 -8,-5 -8,-8 0,-5 7,-16 13,-24l2 0c20,11 43,27 60,44 15,16 25,33 25,51 0,13 -4,26 -11,38 -22,11 -46,20 -70.01,20 -29,0 -48,-14 -48,-45 0,-3 0,-9 1,-16l10 0 0 0 0 -1 0 0 0 0 0 0 0 0zm-52 -52l18 29c7,11 13,22 13,41l0 24c0,19 -12,39 -32,60 -15,14 -29,20 -42,20 -19,0 -40,-6 -65,-17l3 -7c8,2 17,4 28,4 36,0 72.01,-26 89.01,-58 2,-4 3,-7 3,-9 0,-4 -2,-8 -4,-11 -9,-17 -19,-33 -30,-47 6,-9 12,-18 18,-27l1 0 0 -2 0 0 0 0 0 0 0 -0z"/>
  <g id="_2720515935376">
   <path class="fil3" d="M1004.67 945c0,0 141.23,26.7 250.67,95.47 14.01,10.7 -2.44,35.79 -7.98,50.6 -5.57,14.76 8.64,12.89 15.18,-4.43 7.87,-16.35 12.44,-13.61 12.44,-13.61 0,0 8.37,51.59 23.37,52.77 8.19,1.13 -7.6,-44.23 -7.6,-44.23 0,0 27.17,39.93 37.85,34.04 10.69,-5.92 -26.7,-48.7 -26.7,-48.7 0,0 40.47,35.08 46.66,27.64 6.2,-7.44 -32.14,-39.5 -32.14,-39.5 0,0 38.26,24.02 44.56,17.89 6.29,-6.19 -38.59,-27.73 -38.59,-27.73 0,0 -20.25,-25 -44.76,-27.22 -68.28,-40.07 -206.49,-102.37 -273.44,-105.8l0.48 32.82 0 -0.02z"/>
   <path class="fil4" d="M1294.94 214.32l1110.11 0c163.1,0 295.38,132.28 295.38,295.38l0 1067.3c0,163.1 -132.28,295.36 -295.38,295.36l-1110.11 0c-163.1,0 -295.37,-132.28 -295.37,-295.38l-0.01 -1067.3c0.01,-163.1 132.28,-295.38 295.38,-295.38l0 0.01z"/>
   <path class="fil5" d="M1493.68 1040.05l0 -238.28c26.35,-2.2 58.19,-1.11 84.54,-1.11 72.47,0 143.85,31.85 141.65,120.79 -3.29,121.88 -129.57,124.08 -226.19,118.58l0 0 0 0.01zm-153.74 -373.34c-3.29,13.18 -1.1,158.12 -1.1,184.47l0 374.43c0,27.45 -3.29,172.4 2.2,184.47 17.56,3.29 73.56,1.1 95.53,1.1 64.78,0 55.99,9.88 55.99,-40.62 0,-65.88 0,-130.67 0,-196.56 61.5,0 109.8,3.29 171.3,-7.69 90.04,-16.46 170.19,-71.37 197.65,-160.31 15.37,-50.5 17.57,-106.51 4.39,-158.12 -23.06,-91.14 -92.23,-150.43 -184.47,-173.49 -53.81,-13.17 -109.8,-13.17 -166.9,-12.07 -26.35,1.09 -161.41,1.09 -174.59,5.49l0 -1.1 0 0z"/>
   <path class="fil5" d="M1952.67 1251.98c-4.4,9.89 -2.2,80.16 -2.2,97.72 0,43.92 -7.69,42.83 41.72,58.2 72.47,24.15 182.27,27.44 258.04,-2.2 23.06,-8.78 46.11,-23.06 60.39,-37.34 4.4,-4.39 8.78,-7.68 13.18,-13.17 30.75,-37.33 43.92,-81.26 38.43,-131.77 -6.59,-59.3 -42.83,-92.23 -81.26,-115.29 -59.3,-35.14 -93.33,-39.53 -135.06,-61.49 -18.67,-9.89 -51.61,-24.15 -43.93,-53.81 14.27,-51.61 152.63,-21.96 194.36,-5.49 12.08,4.4 21.95,13.18 36.23,9.89 4.39,-10.98 2.2,-77.96 2.2,-96.62 0,-15.37 4.39,-35.15 -9.89,-40.63 -54.9,-23.06 -159.21,-27.44 -216.31,-16.46 -57.1,10.98 -99.93,39.53 -122.98,72.47 -28.55,38.43 -43.93,97.72 -23.06,153.72 17.56,45.03 56,76.87 96.62,98.82 23.06,12.07 41.72,19.76 68.08,29.65 27.45,10.98 84.55,29.65 83.45,62.59 -2.2,42.83 -76.87,39.54 -107.6,36.24 -40.63,-3.29 -79.06,-14.28 -115.29,-29.65 -8.78,-3.29 -26.35,-15.37 -34.04,-14.28l-1.11 -1.09 0.02 0.01z"/>
   <path class="fil6" d="M1493.68 1040.05c97.73,5.49 224.01,3.29 226.19,-118.58 2.2,-88.94 -69.17,-119.69 -141.65,-120.79 -27.44,0 -58.19,-1.09 -84.54,1.11l0 238.28 0 0 0 -0.01z"/>
  </g>
 </g>
</svg>
