<?xml version="1.0" encoding="UTF-8"?>
<!DOCTYPE svg PUBLIC "-//W3C//DTD SVG 1.1//EN" "http://www.w3.org/Graphics/SVG/1.1/DTD/svg11.dtd">
<!-- Creator: CorelDRAW -->
<svg xmlns="http://www.w3.org/2000/svg" xml:space="preserve" width="3.70333in" height="2.08333in" version="1.1" style="shape-rendering:geometricPrecision; text-rendering:geometricPrecision; image-rendering:optimizeQuality; fill-rule:evenodd; clip-rule:evenodd"
viewBox="0 0 3703.33 2083.33"
 xmlns:xlink="http://www.w3.org/1999/xlink"
 xmlns:xodm="http://www.corel.com/coreldraw/odm/2003">
 <defs>
  <style type="text/css">
   <![CDATA[
    .fil0 {fill:#E6E7E8}
    .fil5 {fill:#0E346D;fill-rule:nonzero}
    .fil6 {fill:#103F91;fill-rule:nonzero}
    .fil7 {fill:#1651AA;fill-rule:nonzero}
    .fil3 {fill:#185ABD;fill-rule:nonzero}
    .fil8 {fill:#2770BE;fill-rule:nonzero}
    .fil4 {fill:#2B7CD3;fill-rule:nonzero}
    .fil9 {fill:#41A5EE;fill-rule:nonzero}
    .fil10 {fill:white;fill-rule:nonzero}
    .fil2 {fill:#373435;fill-opacity:0.031373}
    .fil1 {fill:#373435;fill-opacity:0.101961}
   ]]>
  </style>
 </defs>
 <g id="Layer_x0020_1">
  <metadata id="CorelCorpID_0Corel-Layer"/>
  <polygon class="fil0" points="-3.83,1.67 3704.16,1.67 3704.16,2084.66 -3.83,2084.66 "/>
  <polygon class="fil1" points="-3.83,1408.58 -3.83,1316.28 -3.83,1288.97 -3.83,1276.66 -3.83,1218.8 -3.83,1173.82 1449.22,282.76 1442.26,287.95 1435.85,293.78 1430.02,300.19 1424.83,307.14 1420.3,314.59 1416.5,322.48 1413.46,330.78 1411.24,339.43 1409.87,348.39 1409.41,357.63 1409.41,570.54 1409.41,621.7 1024.72,848.3 1024.72,1394.19 1024.85,1398.57 1025.22,1402.9 1025.82,1407.15 1026.66,1411.31 1027.72,1415.4 1028.99,1419.39 1030.47,1423.29 1032.15,1427.08 1032.88,1428.57 1033.64,1430.04 1034.43,1431.48 1035.24,1432.92 1036.09,1434.33 1036.98,1435.72 1037.89,1437.09 1038.82,1438.45 1041.52,1442.02 1044.43,1445.43 1047.52,1448.66 1050.8,1451.7 1054.24,1454.56 1057.86,1457.2 1061.63,1459.65 1065.55,1461.86 1069.61,1463.85 1073.8,1465.61 1078.11,1467.11 1082.54,1468.36 1087.06,1469.35 1091.69,1470.07 1096.4,1470.51 1101.19,1470.65 1409.41,1470.65 1409.41,1567.31 1409.41,1729.04 1409.87,1738.27 1411.24,1747.24 1413.46,1755.89 1416.5,1764.19 1420.3,1772.08 1424.83,1779.52 1430.02,1786.48 1435.85,1792.89 1442.26,1798.72 1449.22,1803.91 1456.66,1808.43 1464.56,1812.24 1472.85,1815.27 1481.5,1817.5 1490.47,1818.87 1499.7,1819.33 2584.97,1819.33 2594.2,1818.87 2603.17,1817.5 2611.82,1815.27 2620.12,1812.24 2021.69,2084.66 2002.93,2084.66 962.18,2084.66 703.78,2084.66 407.58,2084.66 237.26,2084.66 -3.83,2084.66 -3.83,2063.54 -3.83,2003.29 -3.83,1989.54 -3.83,1955.62 -3.83,1454.19 "/>
  <path class="fil2" d="M214.17 1825.66c7,11 11,21 16,32 3,7 5,19 21,19 5,0 11,-2 17,-5 7,-4 11,-9 14,-17l6 -21 15 -8 1 1c-2,8 -2,15 -2,21 0,18 15,24 27,24 7,0 13,-4 13,-10 0,-8 -4,-23 -8,-35 7,-7 14,-14 23,-20l1 1c4,15 6,30 6,40 0,9 -4,21 -8,28 -7,14 -20,25 -36,25 -12,0 -25,-6 -34,-17l0 0c-9,11 -22,20 -43,20l-7 0c-1,14 -4,24 -9,33 -13,25 -50,42 -85,42 -49,0 -74,-28 -74,-66 0,-23 8,-45 19,-60l9 4c-7,14 -12,27 -12,40 0,35 28,52 61,52 31,0 69,-20 75,-42 -2,-25 -12,-36 -26,-59 4,-8 10,-15 17,-23l1 0 0 0 2 -1 0 0 0 0 0 0 0 0 0 0 0 0 0 0 0 0 0 0 0 0 0 2zm564 -133c10,6 21,14 30,23 -6,8 -12,15 -21,21 -10,-8 -20,-15 -30,-22 7,-8 14,-15 20,-22l0 0 0 0 0 0 0 0 0 0 0 0 0 0 0 0 0 0 0 0 1 0zm5 96c-17,0 -30,11 -30,19 0,17 34,23 73,22 -5,-20 -23,-42 -43,-42l0 0 0 0 0 0 0 0 0 0 0 0 0 0 0 0 0 0 0 0 0 0 0 1zm-38 93c22,0 41,-1 55,-4 16,-4 30,-12 30,-18 0,-2 0,-3 0,-5 -9,1 -19,1 -28,1 -30,0 -52,-7 -61,-23 -2,-4 -4,-9 -4,-15 0,-16 7,-31 19,-42 10,-9 21,-14 33,-14 21,0 37,17 48,43 6,14 11,31 11,51 0,14 -4,25 -12,34 -16,15 -45,21 -90,21l-20 0 0 0 -5 0c-11,0 -19,-2 -26,-7l-1 0c0,2 0,5 0,8 0,10 -3,23 -10,33 -20,30 -42,43 -60,43 -19,0 -42,-7 -63,-17l4 -7c7,3 16,5 29,5 34,0 78,-33 84,-65 -1,-2 -4,-6 -7,-9 -10,-12 -16,-22 -22,-32 5,-10 9,-18 14,-25l2 0c14,30 28,46 57,46l5 0 0 0 21 0 0 -1 0 0 0 0 0 0 -3 -1zm-147 31c2,-13 3,-29 3,-43l0 -21c0,-39 -5,-96 -9,-133 7,-8 17,-17 25,-23l2 1c5,47 6,101 6,151 0,13 0,26 -2,35 -1,12 -8,21 -22,35l-3 -2 0 0 0 0 0 0 0 0 0 0 0 0 0 0 0 0 0 0zm-151 -62c1,19 10,33 41,33 20,0 36,-5 55,-14 3,-2 5,-4 5,-5 0,-11 -9,-27 -24,-41 -15,-13 -33,-25 -52,-32 -6,-3 -8,-6 -8,-8 0,-6 7,-16 13,-24l2 0c21,11 43,27 60,44 15,16 25,33 25,51 0,13 -4,26 -11,37 -23,11 -47,20 -70,20 -29,0 -48,-13 -48,-45 0,-4 0,-9 1,-16l10 0 0 0 0 0 0 0 0 0 0 0 0 0 0 0 0 0 0 0 0 0 0 0 0 0 1 0zm-52 -52l18 29c7,11 13,22 13,41l0 24c0,19 -12,39 -32,60 -15,14 -29,19 -42,19 -19,0 -40,-6 -65,-17l3 -7c8,2 17,4 28,4 36,0 72,-26 89,-58 2,-4 3,-7 3,-9 0,-4 -2,-8 -4,-11 -9,-17 -19,-33 -30,-47 6,-9 11,-18 18,-27l2 0 0 0 1 0 0 0 0 0 0 0 0 0 0 0 0 0 0 0 0 0 0 0 0 0 -2 -1z"/>
  <path class="fil3" d="M1409.41 621.7l-308.22 0c-29.69,0 -55.44,16.94 -68.11,41.7 -5.34,10.43 -8.35,22.24 -8.35,34.76l0 696.04c0,11.77 2.68,22.93 7.43,32.89 1.9,4 4.13,7.78 6.67,11.37 13.85,19.5 36.63,32.2 62.36,32.2l308.22 0 0 96.66 0 161.73c0,49.87 40.43,90.29 90.3,90.29l1085.26 0c49.87,0 90.3,-40.42 90.3,-90.29l0 -301.96 0 -380.9 0 -382.78 0 -305.77c0,-49.87 -40.43,-90.29 -90.3,-90.29l-1085.26 0c-49.87,0 -90.3,40.42 -90.3,90.29l0 212.91 0 51.16z"/>
  <g id="_1227912513968">
   <path class="fil3" d="M1859.59 1438.45c2.54,-3.59 4.77,-7.38 6.67,-11.37 4.76,-9.95 7.43,-21.12 7.43,-32.88l0 -696.03c0,-12.53 -3.01,-24.33 -8.35,-34.77 -12.66,-24.75 -38.42,-41.69 -68.11,-41.69l-696.03 0c-29.7,0 -55.45,16.94 -68.11,41.69 -5.34,10.44 -8.35,22.24 -8.35,34.77l0 696.03c0,11.76 2.67,22.93 7.43,32.88 1.89,4 4.13,7.79 6.67,11.37 13.85,19.5 36.63,32.2 62.37,32.2l696.03 0c25.73,0 48.51,-12.7 62.37,-32.2z"/>
   <polygon class="fil3" points="2059.39,1427.08 2675.27,1427.08 2675.27,1046.18 2059.39,1046.18 "/>
   <polygon class="fil4" points="2059.39,1046.19 2675.27,1046.19 2675.27,663.39 2059.39,663.39 "/>
   <path class="fil5" d="M1947.59 1477.52l0 -817.19c0,-49.59 -40.19,-89.78 -89.78,-89.78l-448.4 0 0 51.17 387.81 0c29.69,0 55.45,16.94 68.11,41.69 5.34,10.44 8.35,22.24 8.35,34.77l0 696.03c0,11.76 -2.67,22.93 -7.43,32.88 -1.9,4 -4.13,7.79 -6.67,11.37 -13.85,19.5 -36.63,32.2 -62.37,32.2l-387.81 0 0 96.66 448.4 0c49.59,0 89.78,-40.2 89.78,-89.8z"/>
   <path class="fil6" d="M1947.59 1427.08l0 50.44c0,49.6 -40.19,89.8 -89.78,89.8l-448.4 0 0 161.73c0,49.88 40.43,90.29 90.3,90.29l1085.27 0c49.87,0 90.3,-40.41 90.3,-90.29l0 -301.96 -727.69 0z"/>
   <polygon class="fil7" points="1947.59,1427.08 2059.39,1427.08 2059.39,1046.18 1947.59,1046.18 "/>
   <polygon class="fil8" points="1947.59,1046.19 2059.39,1046.19 2059.39,663.39 1947.59,663.39 "/>
   <path class="fil9" d="M2584.97 267.33l-1085.27 0c-49.87,0 -90.3,40.43 -90.3,90.3l0 212.91 448.4 0c49.59,0 89.78,40.19 89.78,89.78l0 3.07 727.69 0 0 -305.76c0,-49.87 -40.43,-90.3 -90.3,-90.3z"/>
   <polygon class="fil10" points="1625.11,813.75 1572.32,1121.04 1487.84,824.44 1416.72,824.44 1327.09,1126.37 1273.3,813.25 1181.43,813.05 1261.24,1278.7 1353.28,1278.81 1449.69,962.78 1545.13,1279.31 1637.17,1279.2 1716.97,813.55 "/>
  </g>
 </g>
</svg>
