<?xml version="1.0" encoding="UTF-8"?>
<!DOCTYPE svg PUBLIC "-//W3C//DTD SVG 1.1//EN" "http://www.w3.org/Graphics/SVG/1.1/DTD/svg11.dtd">
<!-- Creator: CorelDRAW -->
<svg xmlns="http://www.w3.org/2000/svg" xml:space="preserve" width="94.1916mm" height="52.9166mm" version="1.1" style="shape-rendering:geometricPrecision; text-rendering:geometricPrecision; image-rendering:optimizeQuality; fill-rule:evenodd; clip-rule:evenodd"
viewBox="0 0 9419.16 5291.66"
 xmlns:xlink="http://www.w3.org/1999/xlink"
 xmlns:xodm="http://www.corel.com/coreldraw/odm/2003">
 <defs>
  <style type="text/css">
   <![CDATA[
    .fil5 {fill:#107C41}
    .fil3 {fill:#185C37}
    .fil4 {fill:#21A366}
    .fil8 {fill:#33C481}
    .fil0 {fill:#E6E7E8}
    .fil7 {fill:white}
    .fil2 {fill:#373435;fill-opacity:0.031373}
    .fil1 {fill:#373435;fill-opacity:0.101961}
    .fil6 {fill:url(#id0)}
   ]]>
  </style>
  <linearGradient id="id0" gradientUnits="userSpaceOnUse" x1="2866.71" y1="3935.73" x2="4356.18" y2="1349.91">
   <stop offset="0" style="stop-opacity:1; stop-color:#18884F"/>
   <stop offset="0.501961" style="stop-opacity:1; stop-color:#117E43"/>
   <stop offset="1" style="stop-opacity:1; stop-color:#0B6631"/>
  </linearGradient>
 </defs>
 <g id="Layer_x0020_1">
  <metadata id="CorelCorpID_0Corel-Layer"/>
  <polygon class="fil0" points="-0,0 9419.16,0 9419.16,5291.66 -0,5291.66 "/>
  <path class="fil1" d="M5788.35 3503.61c108.74,181 1020.95,1211.04 1020.95,1211.04l-1849.86 577.01 -4959.44 0 0 -2790.74 3570.31 -1876.2 2218.04 2878.89z"/>
  <path class="fil2" d="M550.85 4636.82c17.98,27.25 29.64,53.44 41.02,82.55 8.46,16.94 12.95,48.16 52.65,48.16 11.63,0 28.32,-3.43 43.13,-11.63 16.66,-8.74 29.36,-21.97 35.99,-42.06l15.87 -53.44 38.63 -19.05 2.64 2.64c-5.28,20.12 -6.6,39.42 -6.6,54.51 0,44.7 38.63,61.65 69.32,61.65 17.98,0 34.14,-8.74 34.14,-25.15 0,-21.16 -8.99,-57.15 -20.65,-89.43 17.98,-17.98 35.99,-35.99 56.62,-50.55l3.17 1.6c8.99,38.1 14.02,75.67 14.02,100.81 0,24.61 -10.85,51.87 -19.84,69.6 -18.52,34.92 -51.33,62.71 -91.01,62.71 -30.15,0 -63.75,-15.09 -86.79,-43.13l-1.32 0c-21.69,27 -55.3,51.33 -109.02,51.33l-16.66 0c-2.64,35.46 -10.31,60.58 -21.97,83.08 -32,62.43 -127,106.63 -216.43,106.63 -124.36,0 -186.79,-71.7 -186.79,-167.21 0,-59 19.3,-113.77 48.95,-152.65l24.33 10.06c-18.52,35.46 -30.96,68.78 -30.96,101.6 0,89.43 72.77,132.03 156.64,132.03 77.8,0 174.09,-49.48 191.57,-106.88 -6.6,-62.71 -30.15,-92.07 -66.14,-149.22 10.85,-19.05 24.87,-38.1 42.34,-58.47l3.17 0 0 0 0 0 -0.02 -0.09zm1434.31 -336.55c26.19,16.41 51.87,35.71 76.99,57.94 -14.02,19.84 -31.5,37.85 -53.19,53.72 -25.15,-20.37 -50.27,-37.85 -75.95,-56.36 17.45,-19.58 34.67,-38.35 52.12,-55.3l0 0 0 0 0 0 0 0 0 0 0.03 0zm13.49 244.48c-42.34,0 -76.99,27.79 -76.99,48.41 0,44.2 84.66,57.94 186,57.4 -12.7,-51.87 -57.15,-105.84 -109.02,-105.84l0.01 0.03zm-95 236.55c55.04,0 103.2,-1.6 139.95,-10.85 41.02,-10.31 75.67,-30.96 75.67,-45.24 0,-3.71 0,-8.2 -1.32,-11.91 -23.01,2.11 -49.48,2.11 -72.49,2.11 -74.6,0 -131.75,-16.94 -154.25,-58.75 -5.56,-11.63 -9.52,-24.61 -9.52,-39.42 0,-40.49 17.45,-79.91 48.16,-107.16 25.65,-22.48 53.97,-36.5 82.8,-36.5 52.12,0 93.65,41.81 122.76,107.7 15.87,35.99 26.72,77.52 26.72,129.92 0,34.92 -9.52,64.29 -31.22,85.98 -40.49,39.17 -115.09,53.97 -229.39,53.97l-51.87 0 0 0 -13.49 0c-28.32,0 -48.69,-5.03 -64.82,-17.45l-2.64 0c0.79,6.6 1.32,12.95 1.32,19.05 0,25.65 -8.46,58.47 -25.65,84.66 -50.8,75.41 -105.84,108.2 -153.47,108.2 -48.16,0 -107.16,-18.52 -160.35,-42.6l9.52 -18.52c17.2,7.14 41.02,11.91 73.81,11.91 85.98,0 198.96,-82.55 212.98,-163.25 -3.17,-6.6 -8.99,-15.34 -17.2,-24.61 -25.15,-29.9 -41.02,-54.76 -55.83,-80.95 12.7,-25.15 24.33,-45.24 35.18,-63.5l4.5 -0.53c36.78,74.88 70.1,117.73 144.45,117.73l11.63 0 0 0 53.97 0 0 0 0 0 0 0 0 0 0 0 0.09 0.01zm-372.54 79.12c6.35,-34.39 6.88,-73.02 6.88,-109.02l0 -53.44c0,-99.75 -12.7,-244.73 -23.01,-339.19 17.98,-19.3 43.13,-42.06 62.97,-57.4l5.82 1.6c13.49,118.8 16.66,256.39 16.66,383.64 0,33.35 -1.32,65.89 -4.5,89.69 -1.85,30.15 -19.3,52.91 -56.62,87.83l-8.2 -3.71zm-383.38 -157.43c1.85,46.84 24.87,83.62 105.31,83.62 50.01,0 92.33,-12.95 139.17,-35.18 8.46,-3.71 12.95,-8.74 12.95,-12.95 0,-29.36 -22.48,-68.25 -60.32,-103.71 -36.78,-33.35 -85.47,-62.71 -130.96,-82.3 -15.62,-6.6 -20.65,-13.49 -20.65,-20.12 0,-13.49 17.98,-41.81 32.82,-62.18l5.03 -0.53c52.12,27.25 110.34,67.74 153.47,112.7 39.17,41.53 63.5,83.62 63.5,129.39 0,33.86 -10.31,65.61 -27,95.25 -57.15,28.83 -118.01,50.8 -178.33,50.8 -73.28,0 -123.29,-34.39 -123.29,-115.09 0,-8.74 0,-22.22 3.17,-39.7l25.15 0 0 0 0 0 0 0 0 0 0 0 -0.02 0zm-132.57 -133.1l45.52 73.56c16.66,27.25 32.28,56.9 32.28,103.71l0 59.79c0,48.41 -30.96,100.28 -80.95,151.61 -39.17,34.67 -73.81,49.48 -105.84,49.48 -47.62,0 -102.13,-14.81 -165.1,-41.81l7.14 -18.52c19.84,5.28 42.85,9.78 71.17,9.78 90.5,-0.53 183.08,-66.67 225.42,-147.37 5.03,-9.27 6.88,-17.98 6.88,-24.08 0,-9.27 -5.03,-19.58 -8.99,-28.83 -23.01,-43.38 -48.69,-83.08 -76.99,-119.86 14.81,-23.29 29.64,-45.77 45.77,-68l3.71 0.53 0 0 0 0 0 0 0 0 0 0 -0.02 0.01z"/>
  <g id="_1506634630880">
   <path class="fil3" d="M5281.27 2541.25l-1767.31 -310.2 0 2301.14c0,104.58 86.55,191.14 191.14,191.14l0 0 3047.72 0c104.59,0 191.14,-86.56 191.14,-191.14l0 0 0 -847.59 -1662.72 -1143.37 0.04 0 0 0 -0.01 0.02z"/>
   <path class="fil4" d="M5281.27 568.37l-1576.17 0c-104.59,0 -191.14,86.55 -191.14,191.14 0,0 0,0 0,0l0 847.59 1767.31 1038.78 934.14 310.2 728.58 -310.2 0 -1038.78 -1662.72 -1038.77 0 0 0 0.04z"/>
   <polygon class="fil5" points="3513.94,1607.1 5281.27,1607.1 5281.27,2645.88 3513.94,2645.88 "/>
   <path class="fil6" d="M2666.32 1502.51l1904.4 0c104.59,0 191.14,86.56 191.14,191.15l0 1904.4c0,104.58 -86.55,191.14 -191.14,191.14l-1904.4 0c-104.58,0 -191.14,-86.56 -191.14,-191.14l0 -1904.4c0,-104.59 86.56,-191.15 191.14,-191.15z"/>
   <path class="fil7" d="M3066.71 3262.63l400.36 -620.39 -367.9 -616.77 295.77 0 201.96 393.14c18.04,36.07 32.46,64.92 39.68,82.95l3.6 0c14.43,-28.85 25.25,-57.7 43.28,-86.55l212.78 -389.54 270.53 0 -375.12 613.17 385.94 623.99 -288.56 0 -230.82 -432.82c-10.82,-18.03 -21.63,-36.07 -28.85,-57.71l-3.6 0c-7.22,18.04 -14.43,39.68 -25.25,57.71l-238.03 436.42 -288.56 0 -7.21 -3.6z"/>
   <path class="fil8" d="M6752.85 568.37l-1471.58 0 0 1038.77 1662.72 0 0 -847.59c0,-104.58 -86.56,-191.14 -191.14,-191.14l0 0 0 0 0 -0.04z"/>
   <polygon class="fil5" points="5281.27,2645.88 6943.99,2645.88 6943.99,3684.61 5281.27,3684.61 "/>
  </g>
 </g>
</svg>
